<svg xmlns="http://www.w3.org/2000/svg" width="820" height="170" viewBox="0 0 820 170" role="img" aria-labelledby="wk-title wk-desc" font-family="Segoe UI, Helvetica, Arial, sans-serif"><title id="wk-title">WakaTime coding stats</title><desc id="wk-desc">TypeScript 40.0%, Markdown 33.9%, JavaScript 5.5%, JSON 5.1%, Python 3.9%</desc><rect width="820" height="170" rx="10" fill="#f0e0c8"/><defs><clipPath id="wk-seg-0"><rect x="20.00" y="20" width="244.23" height="130" rx="6"/></clipPath><clipPath id="wk-seg-1"><rect x="267.23" y="20" width="206.51" height="130" rx="6"/></clipPath><clipPath id="wk-seg-2"><rect x="476.74" y="20" width="31.11" height="130" rx="6"/></clipPath><clipPath id="wk-seg-3"><rect x="510.85" y="20" width="28.79" height="130" rx="6"/></clipPath><clipPath id="wk-seg-4"><rect x="542.65" y="20" width="21.35" height="130" rx="6"/></clipPath></defs><g clip-path="url(#wk-seg-0)"><g transform="translate(20.00,20)"><rect width="244.23" height="130" fill="#b87040"/><g fill="none" stroke="#7c4b2c" stroke-width="1.6" opacity="0.6"><path d="M-38.0,0.0 A19.0,19.0 0 0 0 0.0,0.0 M-31.7,0.0 A12.7,12.7 0 0 0 -6.3,0.0 M-25.3,0.0 A6.3,6.3 0 0 0 -12.7,0.0 M0.0,0.0 A19.0,19.0 0 0 0 38.0,0.0 M6.3,0.0 A12.7,12.7 0 0 0 31.7,0.0 M12.7,0.0 A6.3,6.3 0 0 0 25.3,0.0 M38.0,0.0 A19.0,19.0 0 0 0 76.0,0.0 M44.3,0.0 A12.7,12.7 0 0 0 69.7,0.0 M50.7,0.0 A6.3,6.3 0 0 0 63.3,0.0 M76.0,0.0 A19.0,19.0 0 0 0 114.0,0.0 M82.3,0.0 A12.7,12.7 0 0 0 107.7,0.0 M88.7,0.0 A6.3,6.3 0 0 0 101.3,0.0 M114.0,0.0 A19.0,19.0 0 0 0 152.0,0.0 M120.3,0.0 A12.7,12.7 0 0 0 145.7,0.0 M126.7,0.0 A6.3,6.3 0 0 0 139.3,0.0 M152.0,0.0 A19.0,19.0 0 0 0 190.0,0.0 M158.3,0.0 A12.7,12.7 0 0 0 183.7,0.0 M164.7,0.0 A6.3,6.3 0 0 0 177.3,0.0 M190.0,0.0 A19.0,19.0 0 0 0 228.0,0.0 M196.3,0.0 A12.7,12.7 0 0 0 221.7,0.0 M202.7,0.0 A6.3,6.3 0 0 0 215.3,0.0 M228.0,0.0 A19.0,19.0 0 0 0 266.0,0.0 M234.3,0.0 A12.7,12.7 0 0 0 259.7,0.0 M240.7,0.0 A6.3,6.3 0 0 0 253.3,0.0 M266.0,0.0 A19.0,19.0 0 0 0 304.0,0.0 M272.3,0.0 A12.7,12.7 0 0 0 297.7,0.0 M278.7,0.0 A6.3,6.3 0 0 0 291.3,0.0 M-19.0,19.0 A19.0,19.0 0 0 0 19.0,19.0 M-12.7,19.0 A12.7,12.7 0 0 0 12.7,19.0 M-6.3,19.0 A6.3,6.3 0 0 0 6.3,19.0 M19.0,19.0 A19.0,19.0 0 0 0 57.0,19.0 M25.3,19.0 A12.7,12.7 0 0 0 50.7,19.0 M31.7,19.0 A6.3,6.3 0 0 0 44.3,19.0 M57.0,19.0 A19.0,19.0 0 0 0 95.0,19.0 M63.3,19.0 A12.7,12.7 0 0 0 88.7,19.0 M69.7,19.0 A6.3,6.3 0 0 0 82.3,19.0 M95.0,19.0 A19.0,19.0 0 0 0 133.0,19.0 M101.3,19.0 A12.7,12.7 0 0 0 126.7,19.0 M107.7,19.0 A6.3,6.3 0 0 0 120.3,19.0 M133.0,19.0 A19.0,19.0 0 0 0 171.0,19.0 M139.3,19.0 A12.7,12.7 0 0 0 164.7,19.0 M145.7,19.0 A6.3,6.3 0 0 0 158.3,19.0 M171.0,19.0 A19.0,19.0 0 0 0 209.0,19.0 M177.3,19.0 A12.7,12.7 0 0 0 202.7,19.0 M183.7,19.0 A6.3,6.3 0 0 0 196.3,19.0 M209.0,19.0 A19.0,19.0 0 0 0 247.0,19.0 M215.3,19.0 A12.7,12.7 0 0 0 240.7,19.0 M221.7,19.0 A6.3,6.3 0 0 0 234.3,19.0 M247.0,19.0 A19.0,19.0 0 0 0 285.0,19.0 M253.3,19.0 A12.7,12.7 0 0 0 278.7,19.0 M259.7,19.0 A6.3,6.3 0 0 0 272.3,19.0 M285.0,19.0 A19.0,19.0 0 0 0 323.0,19.0 M291.3,19.0 A12.7,12.7 0 0 0 316.7,19.0 M297.7,19.0 A6.3,6.3 0 0 0 310.3,19.0 M-38.0,38.0 A19.0,19.0 0 0 0 0.0,38.0 M-31.7,38.0 A12.7,12.7 0 0 0 -6.3,38.0 M-25.3,38.0 A6.3,6.3 0 0 0 -12.7,38.0 M0.0,38.0 A19.0,19.0 0 0 0 38.0,38.0 M6.3,38.0 A12.7,12.7 0 0 0 31.7,38.0 M12.7,38.0 A6.3,6.3 0 0 0 25.3,38.0 M38.0,38.0 A19.0,19.0 0 0 0 76.0,38.0 M44.3,38.0 A12.7,12.7 0 0 0 69.7,38.0 M50.7,38.0 A6.3,6.3 0 0 0 63.3,38.0 M76.0,38.0 A19.0,19.0 0 0 0 114.0,38.0 M82.3,38.0 A12.7,12.7 0 0 0 107.7,38.0 M88.7,38.0 A6.3,6.3 0 0 0 101.3,38.0 M114.0,38.0 A19.0,19.0 0 0 0 152.0,38.0 M120.3,38.0 A12.7,12.7 0 0 0 145.7,38.0 M126.7,38.0 A6.3,6.3 0 0 0 139.3,38.0 M152.0,38.0 A19.0,19.0 0 0 0 190.0,38.0 M158.3,38.0 A12.7,12.7 0 0 0 183.7,38.0 M164.7,38.0 A6.3,6.3 0 0 0 177.3,38.0 M190.0,38.0 A19.0,19.0 0 0 0 228.0,38.0 M196.3,38.0 A12.7,12.7 0 0 0 221.7,38.0 M202.7,38.0 A6.3,6.3 0 0 0 215.3,38.0 M228.0,38.0 A19.0,19.0 0 0 0 266.0,38.0 M234.3,38.0 A12.7,12.7 0 0 0 259.7,38.0 M240.7,38.0 A6.3,6.3 0 0 0 253.3,38.0 M266.0,38.0 A19.0,19.0 0 0 0 304.0,38.0 M272.3,38.0 A12.7,12.7 0 0 0 297.7,38.0 M278.7,38.0 A6.3,6.3 0 0 0 291.3,38.0 M-19.0,57.0 A19.0,19.0 0 0 0 19.0,57.0 M-12.7,57.0 A12.7,12.7 0 0 0 12.7,57.0 M-6.3,57.0 A6.3,6.3 0 0 0 6.3,57.0 M19.0,57.0 A19.0,19.0 0 0 0 57.0,57.0 M25.3,57.0 A12.7,12.7 0 0 0 50.7,57.0 M31.7,57.0 A6.3,6.3 0 0 0 44.3,57.0 M57.0,57.0 A19.0,19.0 0 0 0 95.0,57.0 M63.3,57.0 A12.7,12.7 0 0 0 88.7,57.0 M69.7,57.0 A6.3,6.3 0 0 0 82.3,57.0 M95.0,57.0 A19.0,19.0 0 0 0 133.0,57.0 M101.3,57.0 A12.7,12.7 0 0 0 126.7,57.0 M107.7,57.0 A6.3,6.3 0 0 0 120.3,57.0 M133.0,57.0 A19.0,19.0 0 0 0 171.0,57.0 M139.3,57.0 A12.7,12.7 0 0 0 164.7,57.0 M145.7,57.0 A6.3,6.3 0 0 0 158.3,57.0 M171.0,57.0 A19.0,19.0 0 0 0 209.0,57.0 M177.3,57.0 A12.7,12.7 0 0 0 202.7,57.0 M183.7,57.0 A6.3,6.3 0 0 0 196.3,57.0 M209.0,57.0 A19.0,19.0 0 0 0 247.0,57.0 M215.3,57.0 A12.7,12.7 0 0 0 240.7,57.0 M221.7,57.0 A6.3,6.3 0 0 0 234.3,57.0 M247.0,57.0 A19.0,19.0 0 0 0 285.0,57.0 M253.3,57.0 A12.7,12.7 0 0 0 278.7,57.0 M259.7,57.0 A6.3,6.3 0 0 0 272.3,57.0 M285.0,57.0 A19.0,19.0 0 0 0 323.0,57.0 M291.3,57.0 A12.7,12.7 0 0 0 316.7,57.0 M297.7,57.0 A6.3,6.3 0 0 0 310.3,57.0 M-38.0,76.0 A19.0,19.0 0 0 0 0.0,76.0 M-31.7,76.0 A12.7,12.7 0 0 0 -6.3,76.0 M-25.3,76.0 A6.3,6.3 0 0 0 -12.7,76.0 M0.0,76.0 A19.0,19.0 0 0 0 38.0,76.0 M6.3,76.0 A12.7,12.7 0 0 0 31.7,76.0 M12.7,76.0 A6.3,6.3 0 0 0 25.3,76.0 M38.0,76.0 A19.0,19.0 0 0 0 76.0,76.0 M44.3,76.0 A12.7,12.7 0 0 0 69.7,76.0 M50.7,76.0 A6.3,6.3 0 0 0 63.3,76.0 M76.0,76.0 A19.0,19.0 0 0 0 114.0,76.0 M82.3,76.0 A12.7,12.7 0 0 0 107.7,76.0 M88.7,76.0 A6.3,6.3 0 0 0 101.3,76.0 M114.0,76.0 A19.0,19.0 0 0 0 152.0,76.0 M120.3,76.0 A12.7,12.7 0 0 0 145.7,76.0 M126.7,76.0 A6.3,6.3 0 0 0 139.3,76.0 M152.0,76.0 A19.0,19.0 0 0 0 190.0,76.0 M158.3,76.0 A12.7,12.7 0 0 0 183.7,76.0 M164.7,76.0 A6.3,6.3 0 0 0 177.3,76.0 M190.0,76.0 A19.0,19.0 0 0 0 228.0,76.0 M196.3,76.0 A12.7,12.7 0 0 0 221.7,76.0 M202.7,76.0 A6.3,6.3 0 0 0 215.3,76.0 M228.0,76.0 A19.0,19.0 0 0 0 266.0,76.0 M234.3,76.0 A12.7,12.7 0 0 0 259.7,76.0 M240.7,76.0 A6.3,6.3 0 0 0 253.3,76.0 M266.0,76.0 A19.0,19.0 0 0 0 304.0,76.0 M272.3,76.0 A12.7,12.7 0 0 0 297.7,76.0 M278.7,76.0 A6.3,6.3 0 0 0 291.3,76.0 M-19.0,95.0 A19.0,19.0 0 0 0 19.0,95.0 M-12.7,95.0 A12.7,12.7 0 0 0 12.7,95.0 M-6.3,95.0 A6.3,6.3 0 0 0 6.3,95.0 M19.0,95.0 A19.0,19.0 0 0 0 57.0,95.0 M25.3,95.0 A12.7,12.7 0 0 0 50.7,95.0 M31.7,95.0 A6.3,6.3 0 0 0 44.3,95.0 M57.0,95.0 A19.0,19.0 0 0 0 95.0,95.0 M63.3,95.0 A12.7,12.7 0 0 0 88.7,95.0 M69.7,95.0 A6.3,6.3 0 0 0 82.3,95.0 M95.0,95.0 A19.0,19.0 0 0 0 133.0,95.0 M101.3,95.0 A12.7,12.7 0 0 0 126.7,95.0 M107.7,95.0 A6.3,6.3 0 0 0 120.3,95.0 M133.0,95.0 A19.0,19.0 0 0 0 171.0,95.0 M139.3,95.0 A12.7,12.7 0 0 0 164.7,95.0 M145.7,95.0 A6.3,6.3 0 0 0 158.3,95.0 M171.0,95.0 A19.0,19.0 0 0 0 209.0,95.0 M177.3,95.0 A12.7,12.7 0 0 0 202.7,95.0 M183.7,95.0 A6.3,6.3 0 0 0 196.3,95.0 M209.0,95.0 A19.0,19.0 0 0 0 247.0,95.0 M215.3,95.0 A12.7,12.7 0 0 0 240.7,95.0 M221.7,95.0 A6.3,6.3 0 0 0 234.3,95.0 M247.0,95.0 A19.0,19.0 0 0 0 285.0,95.0 M253.3,95.0 A12.7,12.7 0 0 0 278.7,95.0 M259.7,95.0 A6.3,6.3 0 0 0 272.3,95.0 M285.0,95.0 A19.0,19.0 0 0 0 323.0,95.0 M291.3,95.0 A12.7,12.7 0 0 0 316.7,95.0 M297.7,95.0 A6.3,6.3 0 0 0 310.3,95.0 M-38.0,114.0 A19.0,19.0 0 0 0 0.0,114.0 M-31.7,114.0 A12.7,12.7 0 0 0 -6.3,114.0 M-25.3,114.0 A6.3,6.3 0 0 0 -12.7,114.0 M0.0,114.0 A19.0,19.0 0 0 0 38.0,114.0 M6.3,114.0 A12.7,12.7 0 0 0 31.7,114.0 M12.7,114.0 A6.3,6.3 0 0 0 25.3,114.0 M38.0,114.0 A19.0,19.0 0 0 0 76.0,114.0 M44.3,114.0 A12.7,12.7 0 0 0 69.7,114.0 M50.7,114.0 A6.3,6.3 0 0 0 63.3,114.0 M76.0,114.0 A19.0,19.0 0 0 0 114.0,114.0 M82.3,114.0 A12.7,12.7 0 0 0 107.7,114.0 M88.7,114.0 A6.3,6.3 0 0 0 101.3,114.0 M114.0,114.0 A19.0,19.0 0 0 0 152.0,114.0 M120.3,114.0 A12.7,12.7 0 0 0 145.7,114.0 M126.7,114.0 A6.3,6.3 0 0 0 139.3,114.0 M152.0,114.0 A19.0,19.0 0 0 0 190.0,114.0 M158.3,114.0 A12.7,12.7 0 0 0 183.7,114.0 M164.7,114.0 A6.3,6.3 0 0 0 177.3,114.0 M190.0,114.0 A19.0,19.0 0 0 0 228.0,114.0 M196.3,114.0 A12.7,12.7 0 0 0 221.7,114.0 M202.7,114.0 A6.3,6.3 0 0 0 215.3,114.0 M228.0,114.0 A19.0,19.0 0 0 0 266.0,114.0 M234.3,114.0 A12.7,12.7 0 0 0 259.7,114.0 M240.7,114.0 A6.3,6.3 0 0 0 253.3,114.0 M266.0,114.0 A19.0,19.0 0 0 0 304.0,114.0 M272.3,114.0 A12.7,12.7 0 0 0 297.7,114.0 M278.7,114.0 A6.3,6.3 0 0 0 291.3,114.0 M-19.0,133.0 A19.0,19.0 0 0 0 19.0,133.0 M-12.7,133.0 A12.7,12.7 0 0 0 12.7,133.0 M-6.3,133.0 A6.3,6.3 0 0 0 6.3,133.0 M19.0,133.0 A19.0,19.0 0 0 0 57.0,133.0 M25.3,133.0 A12.7,12.7 0 0 0 50.7,133.0 M31.7,133.0 A6.3,6.3 0 0 0 44.3,133.0 M57.0,133.0 A19.0,19.0 0 0 0 95.0,133.0 M63.3,133.0 A12.7,12.7 0 0 0 88.7,133.0 M69.7,133.0 A6.3,6.3 0 0 0 82.3,133.0 M95.0,133.0 A19.0,19.0 0 0 0 133.0,133.0 M101.3,133.0 A12.7,12.7 0 0 0 126.7,133.0 M107.7,133.0 A6.3,6.3 0 0 0 120.3,133.0 M133.0,133.0 A19.0,19.0 0 0 0 171.0,133.0 M139.3,133.0 A12.7,12.7 0 0 0 164.7,133.0 M145.7,133.0 A6.3,6.3 0 0 0 158.3,133.0 M171.0,133.0 A19.0,19.0 0 0 0 209.0,133.0 M177.3,133.0 A12.7,12.7 0 0 0 202.7,133.0 M183.7,133.0 A6.3,6.3 0 0 0 196.3,133.0 M209.0,133.0 A19.0,19.0 0 0 0 247.0,133.0 M215.3,133.0 A12.7,12.7 0 0 0 240.7,133.0 M221.7,133.0 A6.3,6.3 0 0 0 234.3,133.0 M247.0,133.0 A19.0,19.0 0 0 0 285.0,133.0 M253.3,133.0 A12.7,12.7 0 0 0 278.7,133.0 M259.7,133.0 A6.3,6.3 0 0 0 272.3,133.0 M285.0,133.0 A19.0,19.0 0 0 0 323.0,133.0 M291.3,133.0 A12.7,12.7 0 0 0 316.7,133.0 M297.7,133.0 A6.3,6.3 0 0 0 310.3,133.0"/></g></g></g><g clip-path="url(#wk-seg-1)"><g transform="translate(267.23,20)"><rect width="206.51" height="130" fill="#7a4a2a"/><g fill="none" stroke="#c1a489" stroke-width="1.6" opacity="0.6"><path d="M-38.0,0.0 A19.0,19.0 0 0 0 0.0,0.0 M-31.7,0.0 A12.7,12.7 0 0 0 -6.3,0.0 M-25.3,0.0 A6.3,6.3 0 0 0 -12.7,0.0 M0.0,0.0 A19.0,19.0 0 0 0 38.0,0.0 M6.3,0.0 A12.7,12.7 0 0 0 31.7,0.0 M12.7,0.0 A6.3,6.3 0 0 0 25.3,0.0 M38.0,0.0 A19.0,19.0 0 0 0 76.0,0.0 M44.3,0.0 A12.7,12.7 0 0 0 69.7,0.0 M50.7,0.0 A6.3,6.3 0 0 0 63.3,0.0 M76.0,0.0 A19.0,19.0 0 0 0 114.0,0.0 M82.3,0.0 A12.7,12.7 0 0 0 107.7,0.0 M88.7,0.0 A6.3,6.3 0 0 0 101.3,0.0 M114.0,0.0 A19.0,19.0 0 0 0 152.0,0.0 M120.3,0.0 A12.7,12.7 0 0 0 145.7,0.0 M126.7,0.0 A6.3,6.3 0 0 0 139.3,0.0 M152.0,0.0 A19.0,19.0 0 0 0 190.0,0.0 M158.3,0.0 A12.7,12.7 0 0 0 183.7,0.0 M164.7,0.0 A6.3,6.3 0 0 0 177.3,0.0 M190.0,0.0 A19.0,19.0 0 0 0 228.0,0.0 M196.3,0.0 A12.7,12.7 0 0 0 221.7,0.0 M202.7,0.0 A6.3,6.3 0 0 0 215.3,0.0 M228.0,0.0 A19.0,19.0 0 0 0 266.0,0.0 M234.3,0.0 A12.7,12.7 0 0 0 259.7,0.0 M240.7,0.0 A6.3,6.3 0 0 0 253.3,0.0 M-19.0,19.0 A19.0,19.0 0 0 0 19.0,19.0 M-12.7,19.0 A12.7,12.7 0 0 0 12.7,19.0 M-6.3,19.0 A6.3,6.3 0 0 0 6.3,19.0 M19.0,19.0 A19.0,19.0 0 0 0 57.0,19.0 M25.3,19.0 A12.7,12.7 0 0 0 50.7,19.0 M31.7,19.0 A6.3,6.3 0 0 0 44.3,19.0 M57.0,19.0 A19.0,19.0 0 0 0 95.0,19.0 M63.3,19.0 A12.7,12.7 0 0 0 88.7,19.0 M69.7,19.0 A6.3,6.3 0 0 0 82.3,19.0 M95.0,19.0 A19.0,19.0 0 0 0 133.0,19.0 M101.3,19.0 A12.7,12.7 0 0 0 126.7,19.0 M107.7,19.0 A6.3,6.3 0 0 0 120.3,19.0 M133.0,19.0 A19.0,19.0 0 0 0 171.0,19.0 M139.3,19.0 A12.7,12.7 0 0 0 164.7,19.0 M145.7,19.0 A6.3,6.3 0 0 0 158.3,19.0 M171.0,19.0 A19.0,19.0 0 0 0 209.0,19.0 M177.3,19.0 A12.7,12.7 0 0 0 202.7,19.0 M183.7,19.0 A6.3,6.3 0 0 0 196.3,19.0 M209.0,19.0 A19.0,19.0 0 0 0 247.0,19.0 M215.3,19.0 A12.7,12.7 0 0 0 240.7,19.0 M221.7,19.0 A6.3,6.3 0 0 0 234.3,19.0 M247.0,19.0 A19.0,19.0 0 0 0 285.0,19.0 M253.3,19.0 A12.7,12.7 0 0 0 278.7,19.0 M259.7,19.0 A6.3,6.3 0 0 0 272.3,19.0 M-38.0,38.0 A19.0,19.0 0 0 0 0.0,38.0 M-31.7,38.0 A12.7,12.7 0 0 0 -6.3,38.0 M-25.3,38.0 A6.3,6.3 0 0 0 -12.7,38.0 M0.0,38.0 A19.0,19.0 0 0 0 38.0,38.0 M6.3,38.0 A12.7,12.7 0 0 0 31.7,38.0 M12.7,38.0 A6.3,6.3 0 0 0 25.3,38.0 M38.0,38.0 A19.0,19.0 0 0 0 76.0,38.0 M44.3,38.0 A12.7,12.7 0 0 0 69.7,38.0 M50.7,38.0 A6.3,6.3 0 0 0 63.3,38.0 M76.0,38.0 A19.0,19.0 0 0 0 114.0,38.0 M82.3,38.0 A12.7,12.7 0 0 0 107.7,38.0 M88.7,38.0 A6.3,6.3 0 0 0 101.3,38.0 M114.0,38.0 A19.0,19.0 0 0 0 152.0,38.0 M120.3,38.0 A12.7,12.7 0 0 0 145.7,38.0 M126.7,38.0 A6.3,6.3 0 0 0 139.3,38.0 M152.0,38.0 A19.0,19.0 0 0 0 190.0,38.0 M158.3,38.0 A12.7,12.7 0 0 0 183.7,38.0 M164.7,38.0 A6.3,6.3 0 0 0 177.3,38.0 M190.0,38.0 A19.0,19.0 0 0 0 228.0,38.0 M196.3,38.0 A12.7,12.7 0 0 0 221.7,38.0 M202.7,38.0 A6.3,6.3 0 0 0 215.3,38.0 M228.0,38.0 A19.0,19.0 0 0 0 266.0,38.0 M234.3,38.0 A12.7,12.7 0 0 0 259.7,38.0 M240.7,38.0 A6.3,6.3 0 0 0 253.3,38.0 M-19.0,57.0 A19.0,19.0 0 0 0 19.0,57.0 M-12.7,57.0 A12.7,12.7 0 0 0 12.7,57.0 M-6.3,57.0 A6.3,6.3 0 0 0 6.3,57.0 M19.0,57.0 A19.0,19.0 0 0 0 57.0,57.0 M25.3,57.0 A12.7,12.7 0 0 0 50.7,57.0 M31.7,57.0 A6.3,6.3 0 0 0 44.3,57.0 M57.0,57.0 A19.0,19.0 0 0 0 95.0,57.0 M63.3,57.0 A12.7,12.7 0 0 0 88.7,57.0 M69.7,57.0 A6.3,6.3 0 0 0 82.3,57.0 M95.0,57.0 A19.0,19.0 0 0 0 133.0,57.0 M101.3,57.0 A12.7,12.7 0 0 0 126.7,57.0 M107.7,57.0 A6.3,6.3 0 0 0 120.3,57.0 M133.0,57.0 A19.0,19.0 0 0 0 171.0,57.0 M139.3,57.0 A12.7,12.7 0 0 0 164.7,57.0 M145.7,57.0 A6.3,6.3 0 0 0 158.3,57.0 M171.0,57.0 A19.0,19.0 0 0 0 209.0,57.0 M177.3,57.0 A12.7,12.7 0 0 0 202.7,57.0 M183.7,57.0 A6.3,6.3 0 0 0 196.3,57.0 M209.0,57.0 A19.0,19.0 0 0 0 247.0,57.0 M215.3,57.0 A12.7,12.7 0 0 0 240.7,57.0 M221.7,57.0 A6.3,6.3 0 0 0 234.3,57.0 M247.0,57.0 A19.0,19.0 0 0 0 285.0,57.0 M253.3,57.0 A12.7,12.7 0 0 0 278.7,57.0 M259.7,57.0 A6.3,6.3 0 0 0 272.3,57.0 M-38.0,76.0 A19.0,19.0 0 0 0 0.0,76.0 M-31.7,76.0 A12.7,12.7 0 0 0 -6.3,76.0 M-25.3,76.0 A6.3,6.3 0 0 0 -12.7,76.0 M0.0,76.0 A19.0,19.0 0 0 0 38.0,76.0 M6.3,76.0 A12.7,12.7 0 0 0 31.7,76.0 M12.7,76.0 A6.3,6.3 0 0 0 25.3,76.0 M38.0,76.0 A19.0,19.0 0 0 0 76.0,76.0 M44.3,76.0 A12.7,12.7 0 0 0 69.7,76.0 M50.7,76.0 A6.3,6.3 0 0 0 63.3,76.0 M76.0,76.0 A19.0,19.0 0 0 0 114.0,76.0 M82.3,76.0 A12.7,12.7 0 0 0 107.7,76.0 M88.7,76.0 A6.3,6.3 0 0 0 101.3,76.0 M114.0,76.0 A19.0,19.0 0 0 0 152.0,76.0 M120.3,76.0 A12.7,12.7 0 0 0 145.7,76.0 M126.7,76.0 A6.3,6.3 0 0 0 139.3,76.0 M152.0,76.0 A19.0,19.0 0 0 0 190.0,76.0 M158.3,76.0 A12.7,12.7 0 0 0 183.7,76.0 M164.7,76.0 A6.3,6.3 0 0 0 177.3,76.0 M190.0,76.0 A19.0,19.0 0 0 0 228.0,76.0 M196.3,76.0 A12.7,12.7 0 0 0 221.7,76.0 M202.7,76.0 A6.3,6.3 0 0 0 215.3,76.0 M228.0,76.0 A19.0,19.0 0 0 0 266.0,76.0 M234.3,76.0 A12.7,12.7 0 0 0 259.7,76.0 M240.7,76.0 A6.3,6.3 0 0 0 253.3,76.0 M-19.0,95.0 A19.0,19.0 0 0 0 19.0,95.0 M-12.7,95.0 A12.7,12.7 0 0 0 12.7,95.0 M-6.3,95.0 A6.3,6.3 0 0 0 6.3,95.0 M19.0,95.0 A19.0,19.0 0 0 0 57.0,95.0 M25.3,95.0 A12.7,12.7 0 0 0 50.7,95.0 M31.7,95.0 A6.3,6.3 0 0 0 44.3,95.0 M57.0,95.0 A19.0,19.0 0 0 0 95.0,95.0 M63.3,95.0 A12.7,12.7 0 0 0 88.7,95.0 M69.7,95.0 A6.3,6.3 0 0 0 82.3,95.0 M95.0,95.0 A19.0,19.0 0 0 0 133.0,95.0 M101.3,95.0 A12.7,12.7 0 0 0 126.7,95.0 M107.7,95.0 A6.3,6.3 0 0 0 120.3,95.0 M133.0,95.0 A19.0,19.0 0 0 0 171.0,95.0 M139.3,95.0 A12.7,12.7 0 0 0 164.7,95.0 M145.7,95.0 A6.3,6.3 0 0 0 158.3,95.0 M171.0,95.0 A19.0,19.0 0 0 0 209.0,95.0 M177.3,95.0 A12.7,12.7 0 0 0 202.7,95.0 M183.7,95.0 A6.3,6.3 0 0 0 196.3,95.0 M209.0,95.0 A19.0,19.0 0 0 0 247.0,95.0 M215.3,95.0 A12.7,12.7 0 0 0 240.7,95.0 M221.7,95.0 A6.3,6.3 0 0 0 234.3,95.0 M247.0,95.0 A19.0,19.0 0 0 0 285.0,95.0 M253.3,95.0 A12.7,12.7 0 0 0 278.7,95.0 M259.7,95.0 A6.3,6.3 0 0 0 272.3,95.0 M-38.0,114.0 A19.0,19.0 0 0 0 0.0,114.0 M-31.7,114.0 A12.7,12.7 0 0 0 -6.3,114.0 M-25.3,114.0 A6.3,6.3 0 0 0 -12.7,114.0 M0.0,114.0 A19.0,19.0 0 0 0 38.0,114.0 M6.3,114.0 A12.7,12.7 0 0 0 31.7,114.0 M12.7,114.0 A6.3,6.3 0 0 0 25.3,114.0 M38.0,114.0 A19.0,19.0 0 0 0 76.0,114.0 M44.3,114.0 A12.7,12.7 0 0 0 69.7,114.0 M50.7,114.0 A6.3,6.3 0 0 0 63.3,114.0 M76.0,114.0 A19.0,19.0 0 0 0 114.0,114.0 M82.3,114.0 A12.7,12.7 0 0 0 107.7,114.0 M88.7,114.0 A6.3,6.3 0 0 0 101.3,114.0 M114.0,114.0 A19.0,19.0 0 0 0 152.0,114.0 M120.3,114.0 A12.7,12.7 0 0 0 145.7,114.0 M126.7,114.0 A6.3,6.3 0 0 0 139.3,114.0 M152.0,114.0 A19.0,19.0 0 0 0 190.0,114.0 M158.3,114.0 A12.7,12.7 0 0 0 183.7,114.0 M164.7,114.0 A6.3,6.3 0 0 0 177.3,114.0 M190.0,114.0 A19.0,19.0 0 0 0 228.0,114.0 M196.3,114.0 A12.7,12.7 0 0 0 221.7,114.0 M202.7,114.0 A6.3,6.3 0 0 0 215.3,114.0 M228.0,114.0 A19.0,19.0 0 0 0 266.0,114.0 M234.3,114.0 A12.7,12.7 0 0 0 259.7,114.0 M240.7,114.0 A6.3,6.3 0 0 0 253.3,114.0 M-19.0,133.0 A19.0,19.0 0 0 0 19.0,133.0 M-12.7,133.0 A12.7,12.7 0 0 0 12.7,133.0 M-6.3,133.0 A6.3,6.3 0 0 0 6.3,133.0 M19.0,133.0 A19.0,19.0 0 0 0 57.0,133.0 M25.3,133.0 A12.7,12.7 0 0 0 50.7,133.0 M31.7,133.0 A6.3,6.3 0 0 0 44.3,133.0 M57.0,133.0 A19.0,19.0 0 0 0 95.0,133.0 M63.3,133.0 A12.7,12.7 0 0 0 88.7,133.0 M69.7,133.0 A6.3,6.3 0 0 0 82.3,133.0 M95.0,133.0 A19.0,19.0 0 0 0 133.0,133.0 M101.3,133.0 A12.7,12.7 0 0 0 126.7,133.0 M107.7,133.0 A6.3,6.3 0 0 0 120.3,133.0 M133.0,133.0 A19.0,19.0 0 0 0 171.0,133.0 M139.3,133.0 A12.7,12.7 0 0 0 164.7,133.0 M145.7,133.0 A6.3,6.3 0 0 0 158.3,133.0 M171.0,133.0 A19.0,19.0 0 0 0 209.0,133.0 M177.3,133.0 A12.7,12.7 0 0 0 202.7,133.0 M183.7,133.0 A6.3,6.3 0 0 0 196.3,133.0 M209.0,133.0 A19.0,19.0 0 0 0 247.0,133.0 M215.3,133.0 A12.7,12.7 0 0 0 240.7,133.0 M221.7,133.0 A6.3,6.3 0 0 0 234.3,133.0 M247.0,133.0 A19.0,19.0 0 0 0 285.0,133.0 M253.3,133.0 A12.7,12.7 0 0 0 278.7,133.0 M259.7,133.0 A6.3,6.3 0 0 0 272.3,133.0"/></g></g></g><g clip-path="url(#wk-seg-2)"><g transform="translate(476.74,20)"><rect width="31.11" height="130" fill="#d89868"/><g fill="none" stroke="#8f6243" stroke-width="1.6" opacity="0.6"><path d="M-38.0,0.0 A19.0,19.0 0 0 0 0.0,0.0 M-31.7,0.0 A12.7,12.7 0 0 0 -6.3,0.0 M-25.3,0.0 A6.3,6.3 0 0 0 -12.7,0.0 M0.0,0.0 A19.0,19.0 0 0 0 38.0,0.0 M6.3,0.0 A12.7,12.7 0 0 0 31.7,0.0 M12.7,0.0 A6.3,6.3 0 0 0 25.3,0.0 M38.0,0.0 A19.0,19.0 0 0 0 76.0,0.0 M44.3,0.0 A12.7,12.7 0 0 0 69.7,0.0 M50.7,0.0 A6.3,6.3 0 0 0 63.3,0.0 M-19.0,19.0 A19.0,19.0 0 0 0 19.0,19.0 M-12.7,19.0 A12.7,12.7 0 0 0 12.7,19.0 M-6.3,19.0 A6.3,6.3 0 0 0 6.3,19.0 M19.0,19.0 A19.0,19.0 0 0 0 57.0,19.0 M25.3,19.0 A12.7,12.7 0 0 0 50.7,19.0 M31.7,19.0 A6.3,6.3 0 0 0 44.3,19.0 M57.0,19.0 A19.0,19.0 0 0 0 95.0,19.0 M63.3,19.0 A12.7,12.7 0 0 0 88.7,19.0 M69.7,19.0 A6.3,6.3 0 0 0 82.3,19.0 M-38.0,38.0 A19.0,19.0 0 0 0 0.0,38.0 M-31.7,38.0 A12.7,12.7 0 0 0 -6.3,38.0 M-25.3,38.0 A6.3,6.3 0 0 0 -12.7,38.0 M0.0,38.0 A19.0,19.0 0 0 0 38.0,38.0 M6.3,38.0 A12.7,12.7 0 0 0 31.7,38.0 M12.7,38.0 A6.3,6.3 0 0 0 25.3,38.0 M38.0,38.0 A19.0,19.0 0 0 0 76.0,38.0 M44.3,38.0 A12.7,12.7 0 0 0 69.7,38.0 M50.7,38.0 A6.3,6.3 0 0 0 63.3,38.0 M-19.0,57.0 A19.0,19.0 0 0 0 19.0,57.0 M-12.7,57.0 A12.7,12.7 0 0 0 12.7,57.0 M-6.3,57.0 A6.3,6.3 0 0 0 6.3,57.0 M19.0,57.0 A19.0,19.0 0 0 0 57.0,57.0 M25.3,57.0 A12.7,12.7 0 0 0 50.7,57.0 M31.7,57.0 A6.3,6.3 0 0 0 44.3,57.0 M57.0,57.0 A19.0,19.0 0 0 0 95.0,57.0 M63.3,57.0 A12.7,12.7 0 0 0 88.7,57.0 M69.7,57.0 A6.3,6.3 0 0 0 82.3,57.0 M-38.0,76.0 A19.0,19.0 0 0 0 0.0,76.0 M-31.7,76.0 A12.7,12.7 0 0 0 -6.3,76.0 M-25.3,76.0 A6.3,6.3 0 0 0 -12.7,76.0 M0.0,76.0 A19.0,19.0 0 0 0 38.0,76.0 M6.3,76.0 A12.7,12.7 0 0 0 31.7,76.0 M12.7,76.0 A6.3,6.3 0 0 0 25.3,76.0 M38.0,76.0 A19.0,19.0 0 0 0 76.0,76.0 M44.3,76.0 A12.7,12.7 0 0 0 69.7,76.0 M50.7,76.0 A6.3,6.3 0 0 0 63.3,76.0 M-19.0,95.0 A19.0,19.0 0 0 0 19.0,95.0 M-12.7,95.0 A12.7,12.7 0 0 0 12.7,95.0 M-6.3,95.0 A6.3,6.3 0 0 0 6.3,95.0 M19.0,95.0 A19.0,19.0 0 0 0 57.0,95.0 M25.3,95.0 A12.7,12.7 0 0 0 50.7,95.0 M31.7,95.0 A6.3,6.3 0 0 0 44.3,95.0 M57.0,95.0 A19.0,19.0 0 0 0 95.0,95.0 M63.3,95.0 A12.7,12.7 0 0 0 88.7,95.0 M69.7,95.0 A6.3,6.3 0 0 0 82.3,95.0 M-38.0,114.0 A19.0,19.0 0 0 0 0.0,114.0 M-31.7,114.0 A12.7,12.7 0 0 0 -6.3,114.0 M-25.3,114.0 A6.3,6.3 0 0 0 -12.7,114.0 M0.0,114.0 A19.0,19.0 0 0 0 38.0,114.0 M6.3,114.0 A12.7,12.7 0 0 0 31.7,114.0 M12.7,114.0 A6.3,6.3 0 0 0 25.3,114.0 M38.0,114.0 A19.0,19.0 0 0 0 76.0,114.0 M44.3,114.0 A12.7,12.7 0 0 0 69.7,114.0 M50.7,114.0 A6.3,6.3 0 0 0 63.3,114.0 M-19.0,133.0 A19.0,19.0 0 0 0 19.0,133.0 M-12.7,133.0 A12.7,12.7 0 0 0 12.7,133.0 M-6.3,133.0 A6.3,6.3 0 0 0 6.3,133.0 M19.0,133.0 A19.0,19.0 0 0 0 57.0,133.0 M25.3,133.0 A12.7,12.7 0 0 0 50.7,133.0 M31.7,133.0 A6.3,6.3 0 0 0 44.3,133.0 M57.0,133.0 A19.0,19.0 0 0 0 95.0,133.0 M63.3,133.0 A12.7,12.7 0 0 0 88.7,133.0 M69.7,133.0 A6.3,6.3 0 0 0 82.3,133.0"/></g></g></g><g clip-path="url(#wk-seg-3)"><g transform="translate(510.85,20)"><rect width="28.79" height="130" fill="#9a5a3a"/><g fill="none" stroke="#ceaa8f" stroke-width="1.6" opacity="0.6"><path d="M-38.0,0.0 A19.0,19.0 0 0 0 0.0,0.0 M-31.7,0.0 A12.7,12.7 0 0 0 -6.3,0.0 M-25.3,0.0 A6.3,6.3 0 0 0 -12.7,0.0 M0.0,0.0 A19.0,19.0 0 0 0 38.0,0.0 M6.3,0.0 A12.7,12.7 0 0 0 31.7,0.0 M12.7,0.0 A6.3,6.3 0 0 0 25.3,0.0 M38.0,0.0 A19.0,19.0 0 0 0 76.0,0.0 M44.3,0.0 A12.7,12.7 0 0 0 69.7,0.0 M50.7,0.0 A6.3,6.3 0 0 0 63.3,0.0 M-19.0,19.0 A19.0,19.0 0 0 0 19.0,19.0 M-12.7,19.0 A12.7,12.7 0 0 0 12.7,19.0 M-6.3,19.0 A6.3,6.3 0 0 0 6.3,19.0 M19.0,19.0 A19.0,19.0 0 0 0 57.0,19.0 M25.3,19.0 A12.7,12.7 0 0 0 50.7,19.0 M31.7,19.0 A6.3,6.3 0 0 0 44.3,19.0 M57.0,19.0 A19.0,19.0 0 0 0 95.0,19.0 M63.3,19.0 A12.7,12.7 0 0 0 88.7,19.0 M69.7,19.0 A6.3,6.3 0 0 0 82.3,19.0 M-38.0,38.0 A19.0,19.0 0 0 0 0.0,38.0 M-31.7,38.0 A12.7,12.7 0 0 0 -6.3,38.0 M-25.3,38.0 A6.3,6.3 0 0 0 -12.7,38.0 M0.0,38.0 A19.0,19.0 0 0 0 38.0,38.0 M6.3,38.0 A12.7,12.7 0 0 0 31.7,38.0 M12.7,38.0 A6.3,6.3 0 0 0 25.3,38.0 M38.0,38.0 A19.0,19.0 0 0 0 76.0,38.0 M44.3,38.0 A12.7,12.7 0 0 0 69.7,38.0 M50.7,38.0 A6.3,6.3 0 0 0 63.3,38.0 M-19.0,57.0 A19.0,19.0 0 0 0 19.0,57.0 M-12.7,57.0 A12.7,12.7 0 0 0 12.7,57.0 M-6.3,57.0 A6.3,6.3 0 0 0 6.3,57.0 M19.0,57.0 A19.0,19.0 0 0 0 57.0,57.0 M25.3,57.0 A12.7,12.7 0 0 0 50.7,57.0 M31.7,57.0 A6.3,6.3 0 0 0 44.3,57.0 M57.0,57.0 A19.0,19.0 0 0 0 95.0,57.0 M63.3,57.0 A12.7,12.7 0 0 0 88.7,57.0 M69.7,57.0 A6.3,6.3 0 0 0 82.3,57.0 M-38.0,76.0 A19.0,19.0 0 0 0 0.0,76.0 M-31.7,76.0 A12.7,12.7 0 0 0 -6.3,76.0 M-25.3,76.0 A6.3,6.3 0 0 0 -12.7,76.0 M0.0,76.0 A19.0,19.0 0 0 0 38.0,76.0 M6.3,76.0 A12.7,12.7 0 0 0 31.7,76.0 M12.7,76.0 A6.3,6.3 0 0 0 25.3,76.0 M38.0,76.0 A19.0,19.0 0 0 0 76.0,76.0 M44.3,76.0 A12.7,12.7 0 0 0 69.7,76.0 M50.7,76.0 A6.3,6.3 0 0 0 63.3,76.0 M-19.0,95.0 A19.0,19.0 0 0 0 19.0,95.0 M-12.7,95.0 A12.7,12.7 0 0 0 12.7,95.0 M-6.3,95.0 A6.3,6.3 0 0 0 6.3,95.0 M19.0,95.0 A19.0,19.0 0 0 0 57.0,95.0 M25.3,95.0 A12.7,12.7 0 0 0 50.7,95.0 M31.7,95.0 A6.3,6.3 0 0 0 44.3,95.0 M57.0,95.0 A19.0,19.0 0 0 0 95.0,95.0 M63.3,95.0 A12.7,12.7 0 0 0 88.7,95.0 M69.7,95.0 A6.3,6.3 0 0 0 82.3,95.0 M-38.0,114.0 A19.0,19.0 0 0 0 0.0,114.0 M-31.7,114.0 A12.7,12.7 0 0 0 -6.3,114.0 M-25.3,114.0 A6.3,6.3 0 0 0 -12.7,114.0 M0.0,114.0 A19.0,19.0 0 0 0 38.0,114.0 M6.3,114.0 A12.7,12.7 0 0 0 31.7,114.0 M12.7,114.0 A6.3,6.3 0 0 0 25.3,114.0 M38.0,114.0 A19.0,19.0 0 0 0 76.0,114.0 M44.3,114.0 A12.7,12.7 0 0 0 69.7,114.0 M50.7,114.0 A6.3,6.3 0 0 0 63.3,114.0 M-19.0,133.0 A19.0,19.0 0 0 0 19.0,133.0 M-12.7,133.0 A12.7,12.7 0 0 0 12.7,133.0 M-6.3,133.0 A6.3,6.3 0 0 0 6.3,133.0 M19.0,133.0 A19.0,19.0 0 0 0 57.0,133.0 M25.3,133.0 A12.7,12.7 0 0 0 50.7,133.0 M31.7,133.0 A6.3,6.3 0 0 0 44.3,133.0 M57.0,133.0 A19.0,19.0 0 0 0 95.0,133.0 M63.3,133.0 A12.7,12.7 0 0 0 88.7,133.0 M69.7,133.0 A6.3,6.3 0 0 0 82.3,133.0"/></g></g></g><g clip-path="url(#wk-seg-4)"><g transform="translate(542.65,20)"><rect width="21.35" height="130" fill="#c4a488"/><g fill="none" stroke="#836956" stroke-width="1.6" opacity="0.6"><path d="M-38.0,0.0 A19.0,19.0 0 0 0 0.0,0.0 M-31.7,0.0 A12.7,12.7 0 0 0 -6.3,0.0 M-25.3,0.0 A6.3,6.3 0 0 0 -12.7,0.0 M0.0,0.0 A19.0,19.0 0 0 0 38.0,0.0 M6.3,0.0 A12.7,12.7 0 0 0 31.7,0.0 M12.7,0.0 A6.3,6.3 0 0 0 25.3,0.0 M38.0,0.0 A19.0,19.0 0 0 0 76.0,0.0 M44.3,0.0 A12.7,12.7 0 0 0 69.7,0.0 M50.7,0.0 A6.3,6.3 0 0 0 63.3,0.0 M-19.0,19.0 A19.0,19.0 0 0 0 19.0,19.0 M-12.7,19.0 A12.7,12.7 0 0 0 12.7,19.0 M-6.3,19.0 A6.3,6.3 0 0 0 6.3,19.0 M19.0,19.0 A19.0,19.0 0 0 0 57.0,19.0 M25.3,19.0 A12.7,12.7 0 0 0 50.7,19.0 M31.7,19.0 A6.3,6.3 0 0 0 44.3,19.0 M57.0,19.0 A19.0,19.0 0 0 0 95.0,19.0 M63.3,19.0 A12.7,12.7 0 0 0 88.7,19.0 M69.7,19.0 A6.3,6.3 0 0 0 82.3,19.0 M-38.0,38.0 A19.0,19.0 0 0 0 0.0,38.0 M-31.7,38.0 A12.7,12.7 0 0 0 -6.3,38.0 M-25.3,38.0 A6.3,6.3 0 0 0 -12.7,38.0 M0.0,38.0 A19.0,19.0 0 0 0 38.0,38.0 M6.3,38.0 A12.7,12.7 0 0 0 31.7,38.0 M12.7,38.0 A6.3,6.3 0 0 0 25.3,38.0 M38.0,38.0 A19.0,19.0 0 0 0 76.0,38.0 M44.3,38.0 A12.7,12.7 0 0 0 69.7,38.0 M50.7,38.0 A6.3,6.3 0 0 0 63.3,38.0 M-19.0,57.0 A19.0,19.0 0 0 0 19.0,57.0 M-12.7,57.0 A12.7,12.7 0 0 0 12.7,57.0 M-6.3,57.0 A6.3,6.3 0 0 0 6.3,57.0 M19.0,57.0 A19.0,19.0 0 0 0 57.0,57.0 M25.3,57.0 A12.7,12.7 0 0 0 50.7,57.0 M31.7,57.0 A6.3,6.3 0 0 0 44.3,57.0 M57.0,57.0 A19.0,19.0 0 0 0 95.0,57.0 M63.3,57.0 A12.7,12.7 0 0 0 88.7,57.0 M69.7,57.0 A6.3,6.3 0 0 0 82.3,57.0 M-38.0,76.0 A19.0,19.0 0 0 0 0.0,76.0 M-31.7,76.0 A12.7,12.7 0 0 0 -6.3,76.0 M-25.3,76.0 A6.3,6.3 0 0 0 -12.7,76.0 M0.0,76.0 A19.0,19.0 0 0 0 38.0,76.0 M6.3,76.0 A12.7,12.7 0 0 0 31.7,76.0 M12.7,76.0 A6.3,6.3 0 0 0 25.3,76.0 M38.0,76.0 A19.0,19.0 0 0 0 76.0,76.0 M44.3,76.0 A12.7,12.7 0 0 0 69.7,76.0 M50.7,76.0 A6.3,6.3 0 0 0 63.3,76.0 M-19.0,95.0 A19.0,19.0 0 0 0 19.0,95.0 M-12.7,95.0 A12.7,12.7 0 0 0 12.7,95.0 M-6.3,95.0 A6.3,6.3 0 0 0 6.3,95.0 M19.0,95.0 A19.0,19.0 0 0 0 57.0,95.0 M25.3,95.0 A12.7,12.7 0 0 0 50.7,95.0 M31.7,95.0 A6.3,6.3 0 0 0 44.3,95.0 M57.0,95.0 A19.0,19.0 0 0 0 95.0,95.0 M63.3,95.0 A12.7,12.7 0 0 0 88.7,95.0 M69.7,95.0 A6.3,6.3 0 0 0 82.3,95.0 M-38.0,114.0 A19.0,19.0 0 0 0 0.0,114.0 M-31.7,114.0 A12.7,12.7 0 0 0 -6.3,114.0 M-25.3,114.0 A6.3,6.3 0 0 0 -12.7,114.0 M0.0,114.0 A19.0,19.0 0 0 0 38.0,114.0 M6.3,114.0 A12.7,12.7 0 0 0 31.7,114.0 M12.7,114.0 A6.3,6.3 0 0 0 25.3,114.0 M38.0,114.0 A19.0,19.0 0 0 0 76.0,114.0 M44.3,114.0 A12.7,12.7 0 0 0 69.7,114.0 M50.7,114.0 A6.3,6.3 0 0 0 63.3,114.0 M-19.0,133.0 A19.0,19.0 0 0 0 19.0,133.0 M-12.7,133.0 A12.7,12.7 0 0 0 12.7,133.0 M-6.3,133.0 A6.3,6.3 0 0 0 6.3,133.0 M19.0,133.0 A19.0,19.0 0 0 0 57.0,133.0 M25.3,133.0 A12.7,12.7 0 0 0 50.7,133.0 M31.7,133.0 A6.3,6.3 0 0 0 44.3,133.0 M57.0,133.0 A19.0,19.0 0 0 0 95.0,133.0 M63.3,133.0 A12.7,12.7 0 0 0 88.7,133.0 M69.7,133.0 A6.3,6.3 0 0 0 82.3,133.0"/></g></g></g><line x1="591.00" y1="26" x2="591.00" y2="144" stroke="#2a1810" stroke-width="1" opacity="0.3"/><rect x="615.00" y="27.00" width="12" height="12" rx="3" fill="#b87040"/><text x="635.00" y="37.00" fill="#1e1108" font-size="13" font-weight="600">TypeScript</text><text x="800.00" y="37.00" fill="#1e1108" font-size="12" text-anchor="end" opacity="0.85">40.0%</text><rect x="615.00" y="53.00" width="12" height="12" rx="3" fill="#7a4a2a"/><text x="635.00" y="63.00" fill="#1e1108" font-size="13" font-weight="600">Markdown</text><text x="800.00" y="63.00" fill="#1e1108" font-size="12" text-anchor="end" opacity="0.85">33.9%</text><rect x="615.00" y="79.00" width="12" height="12" rx="3" fill="#d89868"/><text x="635.00" y="89.00" fill="#1e1108" font-size="13" font-weight="600">JavaScript</text><text x="800.00" y="89.00" fill="#1e1108" font-size="12" text-anchor="end" opacity="0.85">5.5%</text><rect x="615.00" y="105.00" width="12" height="12" rx="3" fill="#9a5a3a"/><text x="635.00" y="115.00" fill="#1e1108" font-size="13" font-weight="600">JSON</text><text x="800.00" y="115.00" fill="#1e1108" font-size="12" text-anchor="end" opacity="0.85">5.1%</text><rect x="615.00" y="131.00" width="12" height="12" rx="3" fill="#c4a488"/><text x="635.00" y="141.00" fill="#1e1108" font-size="13" font-weight="600">Python</text><text x="800.00" y="141.00" fill="#1e1108" font-size="12" text-anchor="end" opacity="0.85">3.9%</text></svg>