<svg xmlns="http://www.w3.org/2000/svg" width="820" height="170" viewBox="0 0 820 170" font-family="Segoe UI, Helvetica, Arial, sans-serif"><rect width="820" height="170" rx="10" fill="#f0e0c8"/><defs><clipPath id="wk-seg-0"><rect x="20.00" y="20" width="308.38" height="130" rx="6"/></clipPath><clipPath id="wk-seg-1"><rect x="331.38" y="20" width="135.49" height="130" rx="6"/></clipPath><clipPath id="wk-seg-2"><rect x="469.88" y="20" width="35.01" height="130" rx="6"/></clipPath><clipPath id="wk-seg-3"><rect x="507.88" y="20" width="29.07" height="130" rx="6"/></clipPath><clipPath id="wk-seg-4"><rect x="539.96" y="20" width="24.04" height="130" rx="6"/></clipPath></defs><g clip-path="url(#wk-seg-0)"><g transform="translate(20.00,20)"><rect width="308.38" height="130" fill="#b87040"/><g fill="none" stroke="#774828" stroke-width="1.6" opacity="0.6"><path d="M-38.00,0.00 A19.00,19.00 0 0 0 0.00,0.00 M-31.67,0.00 A12.67,12.67 0 0 0 -6.33,0.00 M-25.33,0.00 A6.33,6.33 0 0 0 -12.67,0.00 M0.00,0.00 A19.00,19.00 0 0 0 38.00,0.00 M6.33,0.00 A12.67,12.67 0 0 0 31.67,0.00 M12.67,0.00 A6.33,6.33 0 0 0 25.33,0.00 M38.00,0.00 A19.00,19.00 0 0 0 76.00,0.00 M44.33,0.00 A12.67,12.67 0 0 0 69.67,0.00 M50.67,0.00 A6.33,6.33 0 0 0 63.33,0.00 M76.00,0.00 A19.00,19.00 0 0 0 114.00,0.00 M82.33,0.00 A12.67,12.67 0 0 0 107.67,0.00 M88.67,0.00 A6.33,6.33 0 0 0 101.33,0.00 M114.00,0.00 A19.00,19.00 0 0 0 152.00,0.00 M120.33,0.00 A12.67,12.67 0 0 0 145.67,0.00 M126.67,0.00 A6.33,6.33 0 0 0 139.33,0.00 M152.00,0.00 A19.00,19.00 0 0 0 190.00,0.00 M158.33,0.00 A12.67,12.67 0 0 0 183.67,0.00 M164.67,0.00 A6.33,6.33 0 0 0 177.33,0.00 M190.00,0.00 A19.00,19.00 0 0 0 228.00,0.00 M196.33,0.00 A12.67,12.67 0 0 0 221.67,0.00 M202.67,0.00 A6.33,6.33 0 0 0 215.33,0.00 M228.00,0.00 A19.00,19.00 0 0 0 266.00,0.00 M234.33,0.00 A12.67,12.67 0 0 0 259.67,0.00 M240.67,0.00 A6.33,6.33 0 0 0 253.33,0.00 M266.00,0.00 A19.00,19.00 0 0 0 304.00,0.00 M272.33,0.00 A12.67,12.67 0 0 0 297.67,0.00 M278.67,0.00 A6.33,6.33 0 0 0 291.33,0.00 M304.00,0.00 A19.00,19.00 0 0 0 342.00,0.00 M310.33,0.00 A12.67,12.67 0 0 0 335.67,0.00 M316.67,0.00 A6.33,6.33 0 0 0 329.33,0.00 M342.00,0.00 A19.00,19.00 0 0 0 380.00,0.00 M348.33,0.00 A12.67,12.67 0 0 0 373.67,0.00 M354.67,0.00 A6.33,6.33 0 0 0 367.33,0.00 M-19.00,19.00 A19.00,19.00 0 0 0 19.00,19.00 M-12.67,19.00 A12.67,12.67 0 0 0 12.67,19.00 M-6.33,19.00 A6.33,6.33 0 0 0 6.33,19.00 M19.00,19.00 A19.00,19.00 0 0 0 57.00,19.00 M25.33,19.00 A12.67,12.67 0 0 0 50.67,19.00 M31.67,19.00 A6.33,6.33 0 0 0 44.33,19.00 M57.00,19.00 A19.00,19.00 0 0 0 95.00,19.00 M63.33,19.00 A12.67,12.67 0 0 0 88.67,19.00 M69.67,19.00 A6.33,6.33 0 0 0 82.33,19.00 M95.00,19.00 A19.00,19.00 0 0 0 133.00,19.00 M101.33,19.00 A12.67,12.67 0 0 0 126.67,19.00 M107.67,19.00 A6.33,6.33 0 0 0 120.33,19.00 M133.00,19.00 A19.00,19.00 0 0 0 171.00,19.00 M139.33,19.00 A12.67,12.67 0 0 0 164.67,19.00 M145.67,19.00 A6.33,6.33 0 0 0 158.33,19.00 M171.00,19.00 A19.00,19.00 0 0 0 209.00,19.00 M177.33,19.00 A12.67,12.67 0 0 0 202.67,19.00 M183.67,19.00 A6.33,6.33 0 0 0 196.33,19.00 M209.00,19.00 A19.00,19.00 0 0 0 247.00,19.00 M215.33,19.00 A12.67,12.67 0 0 0 240.67,19.00 M221.67,19.00 A6.33,6.33 0 0 0 234.33,19.00 M247.00,19.00 A19.00,19.00 0 0 0 285.00,19.00 M253.33,19.00 A12.67,12.67 0 0 0 278.67,19.00 M259.67,19.00 A6.33,6.33 0 0 0 272.33,19.00 M285.00,19.00 A19.00,19.00 0 0 0 323.00,19.00 M291.33,19.00 A12.67,12.67 0 0 0 316.67,19.00 M297.67,19.00 A6.33,6.33 0 0 0 310.33,19.00 M323.00,19.00 A19.00,19.00 0 0 0 361.00,19.00 M329.33,19.00 A12.67,12.67 0 0 0 354.67,19.00 M335.67,19.00 A6.33,6.33 0 0 0 348.33,19.00 M-38.00,38.00 A19.00,19.00 0 0 0 0.00,38.00 M-31.67,38.00 A12.67,12.67 0 0 0 -6.33,38.00 M-25.33,38.00 A6.33,6.33 0 0 0 -12.67,38.00 M0.00,38.00 A19.00,19.00 0 0 0 38.00,38.00 M6.33,38.00 A12.67,12.67 0 0 0 31.67,38.00 M12.67,38.00 A6.33,6.33 0 0 0 25.33,38.00 M38.00,38.00 A19.00,19.00 0 0 0 76.00,38.00 M44.33,38.00 A12.67,12.67 0 0 0 69.67,38.00 M50.67,38.00 A6.33,6.33 0 0 0 63.33,38.00 M76.00,38.00 A19.00,19.00 0 0 0 114.00,38.00 M82.33,38.00 A12.67,12.67 0 0 0 107.67,38.00 M88.67,38.00 A6.33,6.33 0 0 0 101.33,38.00 M114.00,38.00 A19.00,19.00 0 0 0 152.00,38.00 M120.33,38.00 A12.67,12.67 0 0 0 145.67,38.00 M126.67,38.00 A6.33,6.33 0 0 0 139.33,38.00 M152.00,38.00 A19.00,19.00 0 0 0 190.00,38.00 M158.33,38.00 A12.67,12.67 0 0 0 183.67,38.00 M164.67,38.00 A6.33,6.33 0 0 0 177.33,38.00 M190.00,38.00 A19.00,19.00 0 0 0 228.00,38.00 M196.33,38.00 A12.67,12.67 0 0 0 221.67,38.00 M202.67,38.00 A6.33,6.33 0 0 0 215.33,38.00 M228.00,38.00 A19.00,19.00 0 0 0 266.00,38.00 M234.33,38.00 A12.67,12.67 0 0 0 259.67,38.00 M240.67,38.00 A6.33,6.33 0 0 0 253.33,38.00 M266.00,38.00 A19.00,19.00 0 0 0 304.00,38.00 M272.33,38.00 A12.67,12.67 0 0 0 297.67,38.00 M278.67,38.00 A6.33,6.33 0 0 0 291.33,38.00 M304.00,38.00 A19.00,19.00 0 0 0 342.00,38.00 M310.33,38.00 A12.67,12.67 0 0 0 335.67,38.00 M316.67,38.00 A6.33,6.33 0 0 0 329.33,38.00 M342.00,38.00 A19.00,19.00 0 0 0 380.00,38.00 M348.33,38.00 A12.67,12.67 0 0 0 373.67,38.00 M354.67,38.00 A6.33,6.33 0 0 0 367.33,38.00 M-19.00,57.00 A19.00,19.00 0 0 0 19.00,57.00 M-12.67,57.00 A12.67,12.67 0 0 0 12.67,57.00 M-6.33,57.00 A6.33,6.33 0 0 0 6.33,57.00 M19.00,57.00 A19.00,19.00 0 0 0 57.00,57.00 M25.33,57.00 A12.67,12.67 0 0 0 50.67,57.00 M31.67,57.00 A6.33,6.33 0 0 0 44.33,57.00 M57.00,57.00 A19.00,19.00 0 0 0 95.00,57.00 M63.33,57.00 A12.67,12.67 0 0 0 88.67,57.00 M69.67,57.00 A6.33,6.33 0 0 0 82.33,57.00 M95.00,57.00 A19.00,19.00 0 0 0 133.00,57.00 M101.33,57.00 A12.67,12.67 0 0 0 126.67,57.00 M107.67,57.00 A6.33,6.33 0 0 0 120.33,57.00 M133.00,57.00 A19.00,19.00 0 0 0 171.00,57.00 M139.33,57.00 A12.67,12.67 0 0 0 164.67,57.00 M145.67,57.00 A6.33,6.33 0 0 0 158.33,57.00 M171.00,57.00 A19.00,19.00 0 0 0 209.00,57.00 M177.33,57.00 A12.67,12.67 0 0 0 202.67,57.00 M183.67,57.00 A6.33,6.33 0 0 0 196.33,57.00 M209.00,57.00 A19.00,19.00 0 0 0 247.00,57.00 M215.33,57.00 A12.67,12.67 0 0 0 240.67,57.00 M221.67,57.00 A6.33,6.33 0 0 0 234.33,57.00 M247.00,57.00 A19.00,19.00 0 0 0 285.00,57.00 M253.33,57.00 A12.67,12.67 0 0 0 278.67,57.00 M259.67,57.00 A6.33,6.33 0 0 0 272.33,57.00 M285.00,57.00 A19.00,19.00 0 0 0 323.00,57.00 M291.33,57.00 A12.67,12.67 0 0 0 316.67,57.00 M297.67,57.00 A6.33,6.33 0 0 0 310.33,57.00 M323.00,57.00 A19.00,19.00 0 0 0 361.00,57.00 M329.33,57.00 A12.67,12.67 0 0 0 354.67,57.00 M335.67,57.00 A6.33,6.33 0 0 0 348.33,57.00 M-38.00,76.00 A19.00,19.00 0 0 0 0.00,76.00 M-31.67,76.00 A12.67,12.67 0 0 0 -6.33,76.00 M-25.33,76.00 A6.33,6.33 0 0 0 -12.67,76.00 M0.00,76.00 A19.00,19.00 0 0 0 38.00,76.00 M6.33,76.00 A12.67,12.67 0 0 0 31.67,76.00 M12.67,76.00 A6.33,6.33 0 0 0 25.33,76.00 M38.00,76.00 A19.00,19.00 0 0 0 76.00,76.00 M44.33,76.00 A12.67,12.67 0 0 0 69.67,76.00 M50.67,76.00 A6.33,6.33 0 0 0 63.33,76.00 M76.00,76.00 A19.00,19.00 0 0 0 114.00,76.00 M82.33,76.00 A12.67,12.67 0 0 0 107.67,76.00 M88.67,76.00 A6.33,6.33 0 0 0 101.33,76.00 M114.00,76.00 A19.00,19.00 0 0 0 152.00,76.00 M120.33,76.00 A12.67,12.67 0 0 0 145.67,76.00 M126.67,76.00 A6.33,6.33 0 0 0 139.33,76.00 M152.00,76.00 A19.00,19.00 0 0 0 190.00,76.00 M158.33,76.00 A12.67,12.67 0 0 0 183.67,76.00 M164.67,76.00 A6.33,6.33 0 0 0 177.33,76.00 M190.00,76.00 A19.00,19.00 0 0 0 228.00,76.00 M196.33,76.00 A12.67,12.67 0 0 0 221.67,76.00 M202.67,76.00 A6.33,6.33 0 0 0 215.33,76.00 M228.00,76.00 A19.00,19.00 0 0 0 266.00,76.00 M234.33,76.00 A12.67,12.67 0 0 0 259.67,76.00 M240.67,76.00 A6.33,6.33 0 0 0 253.33,76.00 M266.00,76.00 A19.00,19.00 0 0 0 304.00,76.00 M272.33,76.00 A12.67,12.67 0 0 0 297.67,76.00 M278.67,76.00 A6.33,6.33 0 0 0 291.33,76.00 M304.00,76.00 A19.00,19.00 0 0 0 342.00,76.00 M310.33,76.00 A12.67,12.67 0 0 0 335.67,76.00 M316.67,76.00 A6.33,6.33 0 0 0 329.33,76.00 M342.00,76.00 A19.00,19.00 0 0 0 380.00,76.00 M348.33,76.00 A12.67,12.67 0 0 0 373.67,76.00 M354.67,76.00 A6.33,6.33 0 0 0 367.33,76.00 M-19.00,95.00 A19.00,19.00 0 0 0 19.00,95.00 M-12.67,95.00 A12.67,12.67 0 0 0 12.67,95.00 M-6.33,95.00 A6.33,6.33 0 0 0 6.33,95.00 M19.00,95.00 A19.00,19.00 0 0 0 57.00,95.00 M25.33,95.00 A12.67,12.67 0 0 0 50.67,95.00 M31.67,95.00 A6.33,6.33 0 0 0 44.33,95.00 M57.00,95.00 A19.00,19.00 0 0 0 95.00,95.00 M63.33,95.00 A12.67,12.67 0 0 0 88.67,95.00 M69.67,95.00 A6.33,6.33 0 0 0 82.33,95.00 M95.00,95.00 A19.00,19.00 0 0 0 133.00,95.00 M101.33,95.00 A12.67,12.67 0 0 0 126.67,95.00 M107.67,95.00 A6.33,6.33 0 0 0 120.33,95.00 M133.00,95.00 A19.00,19.00 0 0 0 171.00,95.00 M139.33,95.00 A12.67,12.67 0 0 0 164.67,95.00 M145.67,95.00 A6.33,6.33 0 0 0 158.33,95.00 M171.00,95.00 A19.00,19.00 0 0 0 209.00,95.00 M177.33,95.00 A12.67,12.67 0 0 0 202.67,95.00 M183.67,95.00 A6.33,6.33 0 0 0 196.33,95.00 M209.00,95.00 A19.00,19.00 0 0 0 247.00,95.00 M215.33,95.00 A12.67,12.67 0 0 0 240.67,95.00 M221.67,95.00 A6.33,6.33 0 0 0 234.33,95.00 M247.00,95.00 A19.00,19.00 0 0 0 285.00,95.00 M253.33,95.00 A12.67,12.67 0 0 0 278.67,95.00 M259.67,95.00 A6.33,6.33 0 0 0 272.33,95.00 M285.00,95.00 A19.00,19.00 0 0 0 323.00,95.00 M291.33,95.00 A12.67,12.67 0 0 0 316.67,95.00 M297.67,95.00 A6.33,6.33 0 0 0 310.33,95.00 M323.00,95.00 A19.00,19.00 0 0 0 361.00,95.00 M329.33,95.00 A12.67,12.67 0 0 0 354.67,95.00 M335.67,95.00 A6.33,6.33 0 0 0 348.33,95.00 M-38.00,114.00 A19.00,19.00 0 0 0 0.00,114.00 M-31.67,114.00 A12.67,12.67 0 0 0 -6.33,114.00 M-25.33,114.00 A6.33,6.33 0 0 0 -12.67,114.00 M0.00,114.00 A19.00,19.00 0 0 0 38.00,114.00 M6.33,114.00 A12.67,12.67 0 0 0 31.67,114.00 M12.67,114.00 A6.33,6.33 0 0 0 25.33,114.00 M38.00,114.00 A19.00,19.00 0 0 0 76.00,114.00 M44.33,114.00 A12.67,12.67 0 0 0 69.67,114.00 M50.67,114.00 A6.33,6.33 0 0 0 63.33,114.00 M76.00,114.00 A19.00,19.00 0 0 0 114.00,114.00 M82.33,114.00 A12.67,12.67 0 0 0 107.67,114.00 M88.67,114.00 A6.33,6.33 0 0 0 101.33,114.00 M114.00,114.00 A19.00,19.00 0 0 0 152.00,114.00 M120.33,114.00 A12.67,12.67 0 0 0 145.67,114.00 M126.67,114.00 A6.33,6.33 0 0 0 139.33,114.00 M152.00,114.00 A19.00,19.00 0 0 0 190.00,114.00 M158.33,114.00 A12.67,12.67 0 0 0 183.67,114.00 M164.67,114.00 A6.33,6.33 0 0 0 177.33,114.00 M190.00,114.00 A19.00,19.00 0 0 0 228.00,114.00 M196.33,114.00 A12.67,12.67 0 0 0 221.67,114.00 M202.67,114.00 A6.33,6.33 0 0 0 215.33,114.00 M228.00,114.00 A19.00,19.00 0 0 0 266.00,114.00 M234.33,114.00 A12.67,12.67 0 0 0 259.67,114.00 M240.67,114.00 A6.33,6.33 0 0 0 253.33,114.00 M266.00,114.00 A19.00,19.00 0 0 0 304.00,114.00 M272.33,114.00 A12.67,12.67 0 0 0 297.67,114.00 M278.67,114.00 A6.33,6.33 0 0 0 291.33,114.00 M304.00,114.00 A19.00,19.00 0 0 0 342.00,114.00 M310.33,114.00 A12.67,12.67 0 0 0 335.67,114.00 M316.67,114.00 A6.33,6.33 0 0 0 329.33,114.00 M342.00,114.00 A19.00,19.00 0 0 0 380.00,114.00 M348.33,114.00 A12.67,12.67 0 0 0 373.67,114.00 M354.67,114.00 A6.33,6.33 0 0 0 367.33,114.00 M-19.00,133.00 A19.00,19.00 0 0 0 19.00,133.00 M-12.67,133.00 A12.67,12.67 0 0 0 12.67,133.00 M-6.33,133.00 A6.33,6.33 0 0 0 6.33,133.00 M19.00,133.00 A19.00,19.00 0 0 0 57.00,133.00 M25.33,133.00 A12.67,12.67 0 0 0 50.67,133.00 M31.67,133.00 A6.33,6.33 0 0 0 44.33,133.00 M57.00,133.00 A19.00,19.00 0 0 0 95.00,133.00 M63.33,133.00 A12.67,12.67 0 0 0 88.67,133.00 M69.67,133.00 A6.33,6.33 0 0 0 82.33,133.00 M95.00,133.00 A19.00,19.00 0 0 0 133.00,133.00 M101.33,133.00 A12.67,12.67 0 0 0 126.67,133.00 M107.67,133.00 A6.33,6.33 0 0 0 120.33,133.00 M133.00,133.00 A19.00,19.00 0 0 0 171.00,133.00 M139.33,133.00 A12.67,12.67 0 0 0 164.67,133.00 M145.67,133.00 A6.33,6.33 0 0 0 158.33,133.00 M171.00,133.00 A19.00,19.00 0 0 0 209.00,133.00 M177.33,133.00 A12.67,12.67 0 0 0 202.67,133.00 M183.67,133.00 A6.33,6.33 0 0 0 196.33,133.00 M209.00,133.00 A19.00,19.00 0 0 0 247.00,133.00 M215.33,133.00 A12.67,12.67 0 0 0 240.67,133.00 M221.67,133.00 A6.33,6.33 0 0 0 234.33,133.00 M247.00,133.00 A19.00,19.00 0 0 0 285.00,133.00 M253.33,133.00 A12.67,12.67 0 0 0 278.67,133.00 M259.67,133.00 A6.33,6.33 0 0 0 272.33,133.00 M285.00,133.00 A19.00,19.00 0 0 0 323.00,133.00 M291.33,133.00 A12.67,12.67 0 0 0 316.67,133.00 M297.67,133.00 A6.33,6.33 0 0 0 310.33,133.00 M323.00,133.00 A19.00,19.00 0 0 0 361.00,133.00 M329.33,133.00 A12.67,12.67 0 0 0 354.67,133.00 M335.67,133.00 A6.33,6.33 0 0 0 348.33,133.00"/></g></g></g><g clip-path="url(#wk-seg-1)"><g transform="translate(331.38,20)"><rect width="135.49" height="130" fill="#7a4a2a"/><g fill="none" stroke="#53321c" stroke-width="1.6" opacity="0.6"><path d="M-38.00,0.00 A19.00,19.00 0 0 0 0.00,0.00 M-31.67,0.00 A12.67,12.67 0 0 0 -6.33,0.00 M-25.33,0.00 A6.33,6.33 0 0 0 -12.67,0.00 M0.00,0.00 A19.00,19.00 0 0 0 38.00,0.00 M6.33,0.00 A12.67,12.67 0 0 0 31.67,0.00 M12.67,0.00 A6.33,6.33 0 0 0 25.33,0.00 M38.00,0.00 A19.00,19.00 0 0 0 76.00,0.00 M44.33,0.00 A12.67,12.67 0 0 0 69.67,0.00 M50.67,0.00 A6.33,6.33 0 0 0 63.33,0.00 M76.00,0.00 A19.00,19.00 0 0 0 114.00,0.00 M82.33,0.00 A12.67,12.67 0 0 0 107.67,0.00 M88.67,0.00 A6.33,6.33 0 0 0 101.33,0.00 M114.00,0.00 A19.00,19.00 0 0 0 152.00,0.00 M120.33,0.00 A12.67,12.67 0 0 0 145.67,0.00 M126.67,0.00 A6.33,6.33 0 0 0 139.33,0.00 M152.00,0.00 A19.00,19.00 0 0 0 190.00,0.00 M158.33,0.00 A12.67,12.67 0 0 0 183.67,0.00 M164.67,0.00 A6.33,6.33 0 0 0 177.33,0.00 M-19.00,19.00 A19.00,19.00 0 0 0 19.00,19.00 M-12.67,19.00 A12.67,12.67 0 0 0 12.67,19.00 M-6.33,19.00 A6.33,6.33 0 0 0 6.33,19.00 M19.00,19.00 A19.00,19.00 0 0 0 57.00,19.00 M25.33,19.00 A12.67,12.67 0 0 0 50.67,19.00 M31.67,19.00 A6.33,6.33 0 0 0 44.33,19.00 M57.00,19.00 A19.00,19.00 0 0 0 95.00,19.00 M63.33,19.00 A12.67,12.67 0 0 0 88.67,19.00 M69.67,19.00 A6.33,6.33 0 0 0 82.33,19.00 M95.00,19.00 A19.00,19.00 0 0 0 133.00,19.00 M101.33,19.00 A12.67,12.67 0 0 0 126.67,19.00 M107.67,19.00 A6.33,6.33 0 0 0 120.33,19.00 M133.00,19.00 A19.00,19.00 0 0 0 171.00,19.00 M139.33,19.00 A12.67,12.67 0 0 0 164.67,19.00 M145.67,19.00 A6.33,6.33 0 0 0 158.33,19.00 M171.00,19.00 A19.00,19.00 0 0 0 209.00,19.00 M177.33,19.00 A12.67,12.67 0 0 0 202.67,19.00 M183.67,19.00 A6.33,6.33 0 0 0 196.33,19.00 M-38.00,38.00 A19.00,19.00 0 0 0 0.00,38.00 M-31.67,38.00 A12.67,12.67 0 0 0 -6.33,38.00 M-25.33,38.00 A6.33,6.33 0 0 0 -12.67,38.00 M0.00,38.00 A19.00,19.00 0 0 0 38.00,38.00 M6.33,38.00 A12.67,12.67 0 0 0 31.67,38.00 M12.67,38.00 A6.33,6.33 0 0 0 25.33,38.00 M38.00,38.00 A19.00,19.00 0 0 0 76.00,38.00 M44.33,38.00 A12.67,12.67 0 0 0 69.67,38.00 M50.67,38.00 A6.33,6.33 0 0 0 63.33,38.00 M76.00,38.00 A19.00,19.00 0 0 0 114.00,38.00 M82.33,38.00 A12.67,12.67 0 0 0 107.67,38.00 M88.67,38.00 A6.33,6.33 0 0 0 101.33,38.00 M114.00,38.00 A19.00,19.00 0 0 0 152.00,38.00 M120.33,38.00 A12.67,12.67 0 0 0 145.67,38.00 M126.67,38.00 A6.33,6.33 0 0 0 139.33,38.00 M152.00,38.00 A19.00,19.00 0 0 0 190.00,38.00 M158.33,38.00 A12.67,12.67 0 0 0 183.67,38.00 M164.67,38.00 A6.33,6.33 0 0 0 177.33,38.00 M-19.00,57.00 A19.00,19.00 0 0 0 19.00,57.00 M-12.67,57.00 A12.67,12.67 0 0 0 12.67,57.00 M-6.33,57.00 A6.33,6.33 0 0 0 6.33,57.00 M19.00,57.00 A19.00,19.00 0 0 0 57.00,57.00 M25.33,57.00 A12.67,12.67 0 0 0 50.67,57.00 M31.67,57.00 A6.33,6.33 0 0 0 44.33,57.00 M57.00,57.00 A19.00,19.00 0 0 0 95.00,57.00 M63.33,57.00 A12.67,12.67 0 0 0 88.67,57.00 M69.67,57.00 A6.33,6.33 0 0 0 82.33,57.00 M95.00,57.00 A19.00,19.00 0 0 0 133.00,57.00 M101.33,57.00 A12.67,12.67 0 0 0 126.67,57.00 M107.67,57.00 A6.33,6.33 0 0 0 120.33,57.00 M133.00,57.00 A19.00,19.00 0 0 0 171.00,57.00 M139.33,57.00 A12.67,12.67 0 0 0 164.67,57.00 M145.67,57.00 A6.33,6.33 0 0 0 158.33,57.00 M171.00,57.00 A19.00,19.00 0 0 0 209.00,57.00 M177.33,57.00 A12.67,12.67 0 0 0 202.67,57.00 M183.67,57.00 A6.33,6.33 0 0 0 196.33,57.00 M-38.00,76.00 A19.00,19.00 0 0 0 0.00,76.00 M-31.67,76.00 A12.67,12.67 0 0 0 -6.33,76.00 M-25.33,76.00 A6.33,6.33 0 0 0 -12.67,76.00 M0.00,76.00 A19.00,19.00 0 0 0 38.00,76.00 M6.33,76.00 A12.67,12.67 0 0 0 31.67,76.00 M12.67,76.00 A6.33,6.33 0 0 0 25.33,76.00 M38.00,76.00 A19.00,19.00 0 0 0 76.00,76.00 M44.33,76.00 A12.67,12.67 0 0 0 69.67,76.00 M50.67,76.00 A6.33,6.33 0 0 0 63.33,76.00 M76.00,76.00 A19.00,19.00 0 0 0 114.00,76.00 M82.33,76.00 A12.67,12.67 0 0 0 107.67,76.00 M88.67,76.00 A6.33,6.33 0 0 0 101.33,76.00 M114.00,76.00 A19.00,19.00 0 0 0 152.00,76.00 M120.33,76.00 A12.67,12.67 0 0 0 145.67,76.00 M126.67,76.00 A6.33,6.33 0 0 0 139.33,76.00 M152.00,76.00 A19.00,19.00 0 0 0 190.00,76.00 M158.33,76.00 A12.67,12.67 0 0 0 183.67,76.00 M164.67,76.00 A6.33,6.33 0 0 0 177.33,76.00 M-19.00,95.00 A19.00,19.00 0 0 0 19.00,95.00 M-12.67,95.00 A12.67,12.67 0 0 0 12.67,95.00 M-6.33,95.00 A6.33,6.33 0 0 0 6.33,95.00 M19.00,95.00 A19.00,19.00 0 0 0 57.00,95.00 M25.33,95.00 A12.67,12.67 0 0 0 50.67,95.00 M31.67,95.00 A6.33,6.33 0 0 0 44.33,95.00 M57.00,95.00 A19.00,19.00 0 0 0 95.00,95.00 M63.33,95.00 A12.67,12.67 0 0 0 88.67,95.00 M69.67,95.00 A6.33,6.33 0 0 0 82.33,95.00 M95.00,95.00 A19.00,19.00 0 0 0 133.00,95.00 M101.33,95.00 A12.67,12.67 0 0 0 126.67,95.00 M107.67,95.00 A6.33,6.33 0 0 0 120.33,95.00 M133.00,95.00 A19.00,19.00 0 0 0 171.00,95.00 M139.33,95.00 A12.67,12.67 0 0 0 164.67,95.00 M145.67,95.00 A6.33,6.33 0 0 0 158.33,95.00 M171.00,95.00 A19.00,19.00 0 0 0 209.00,95.00 M177.33,95.00 A12.67,12.67 0 0 0 202.67,95.00 M183.67,95.00 A6.33,6.33 0 0 0 196.33,95.00 M-38.00,114.00 A19.00,19.00 0 0 0 0.00,114.00 M-31.67,114.00 A12.67,12.67 0 0 0 -6.33,114.00 M-25.33,114.00 A6.33,6.33 0 0 0 -12.67,114.00 M0.00,114.00 A19.00,19.00 0 0 0 38.00,114.00 M6.33,114.00 A12.67,12.67 0 0 0 31.67,114.00 M12.67,114.00 A6.33,6.33 0 0 0 25.33,114.00 M38.00,114.00 A19.00,19.00 0 0 0 76.00,114.00 M44.33,114.00 A12.67,12.67 0 0 0 69.67,114.00 M50.67,114.00 A6.33,6.33 0 0 0 63.33,114.00 M76.00,114.00 A19.00,19.00 0 0 0 114.00,114.00 M82.33,114.00 A12.67,12.67 0 0 0 107.67,114.00 M88.67,114.00 A6.33,6.33 0 0 0 101.33,114.00 M114.00,114.00 A19.00,19.00 0 0 0 152.00,114.00 M120.33,114.00 A12.67,12.67 0 0 0 145.67,114.00 M126.67,114.00 A6.33,6.33 0 0 0 139.33,114.00 M152.00,114.00 A19.00,19.00 0 0 0 190.00,114.00 M158.33,114.00 A12.67,12.67 0 0 0 183.67,114.00 M164.67,114.00 A6.33,6.33 0 0 0 177.33,114.00 M-19.00,133.00 A19.00,19.00 0 0 0 19.00,133.00 M-12.67,133.00 A12.67,12.67 0 0 0 12.67,133.00 M-6.33,133.00 A6.33,6.33 0 0 0 6.33,133.00 M19.00,133.00 A19.00,19.00 0 0 0 57.00,133.00 M25.33,133.00 A12.67,12.67 0 0 0 50.67,133.00 M31.67,133.00 A6.33,6.33 0 0 0 44.33,133.00 M57.00,133.00 A19.00,19.00 0 0 0 95.00,133.00 M63.33,133.00 A12.67,12.67 0 0 0 88.67,133.00 M69.67,133.00 A6.33,6.33 0 0 0 82.33,133.00 M95.00,133.00 A19.00,19.00 0 0 0 133.00,133.00 M101.33,133.00 A12.67,12.67 0 0 0 126.67,133.00 M107.67,133.00 A6.33,6.33 0 0 0 120.33,133.00 M133.00,133.00 A19.00,19.00 0 0 0 171.00,133.00 M139.33,133.00 A12.67,12.67 0 0 0 164.67,133.00 M145.67,133.00 A6.33,6.33 0 0 0 158.33,133.00 M171.00,133.00 A19.00,19.00 0 0 0 209.00,133.00 M177.33,133.00 A12.67,12.67 0 0 0 202.67,133.00 M183.67,133.00 A6.33,6.33 0 0 0 196.33,133.00"/></g></g></g><g clip-path="url(#wk-seg-2)"><g transform="translate(469.88,20)"><rect width="35.01" height="130" fill="#d89868"/><g fill="none" stroke="#8a5f40" stroke-width="1.6" opacity="0.6"><path d="M-38.00,0.00 A19.00,19.00 0 0 0 0.00,0.00 M-31.67,0.00 A12.67,12.67 0 0 0 -6.33,0.00 M-25.33,0.00 A6.33,6.33 0 0 0 -12.67,0.00 M0.00,0.00 A19.00,19.00 0 0 0 38.00,0.00 M6.33,0.00 A12.67,12.67 0 0 0 31.67,0.00 M12.67,0.00 A6.33,6.33 0 0 0 25.33,0.00 M38.00,0.00 A19.00,19.00 0 0 0 76.00,0.00 M44.33,0.00 A12.67,12.67 0 0 0 69.67,0.00 M50.67,0.00 A6.33,6.33 0 0 0 63.33,0.00 M76.00,0.00 A19.00,19.00 0 0 0 114.00,0.00 M82.33,0.00 A12.67,12.67 0 0 0 107.67,0.00 M88.67,0.00 A6.33,6.33 0 0 0 101.33,0.00 M-19.00,19.00 A19.00,19.00 0 0 0 19.00,19.00 M-12.67,19.00 A12.67,12.67 0 0 0 12.67,19.00 M-6.33,19.00 A6.33,6.33 0 0 0 6.33,19.00 M19.00,19.00 A19.00,19.00 0 0 0 57.00,19.00 M25.33,19.00 A12.67,12.67 0 0 0 50.67,19.00 M31.67,19.00 A6.33,6.33 0 0 0 44.33,19.00 M57.00,19.00 A19.00,19.00 0 0 0 95.00,19.00 M63.33,19.00 A12.67,12.67 0 0 0 88.67,19.00 M69.67,19.00 A6.33,6.33 0 0 0 82.33,19.00 M-38.00,38.00 A19.00,19.00 0 0 0 0.00,38.00 M-31.67,38.00 A12.67,12.67 0 0 0 -6.33,38.00 M-25.33,38.00 A6.33,6.33 0 0 0 -12.67,38.00 M0.00,38.00 A19.00,19.00 0 0 0 38.00,38.00 M6.33,38.00 A12.67,12.67 0 0 0 31.67,38.00 M12.67,38.00 A6.33,6.33 0 0 0 25.33,38.00 M38.00,38.00 A19.00,19.00 0 0 0 76.00,38.00 M44.33,38.00 A12.67,12.67 0 0 0 69.67,38.00 M50.67,38.00 A6.33,6.33 0 0 0 63.33,38.00 M76.00,38.00 A19.00,19.00 0 0 0 114.00,38.00 M82.33,38.00 A12.67,12.67 0 0 0 107.67,38.00 M88.67,38.00 A6.33,6.33 0 0 0 101.33,38.00 M-19.00,57.00 A19.00,19.00 0 0 0 19.00,57.00 M-12.67,57.00 A12.67,12.67 0 0 0 12.67,57.00 M-6.33,57.00 A6.33,6.33 0 0 0 6.33,57.00 M19.00,57.00 A19.00,19.00 0 0 0 57.00,57.00 M25.33,57.00 A12.67,12.67 0 0 0 50.67,57.00 M31.67,57.00 A6.33,6.33 0 0 0 44.33,57.00 M57.00,57.00 A19.00,19.00 0 0 0 95.00,57.00 M63.33,57.00 A12.67,12.67 0 0 0 88.67,57.00 M69.67,57.00 A6.33,6.33 0 0 0 82.33,57.00 M-38.00,76.00 A19.00,19.00 0 0 0 0.00,76.00 M-31.67,76.00 A12.67,12.67 0 0 0 -6.33,76.00 M-25.33,76.00 A6.33,6.33 0 0 0 -12.67,76.00 M0.00,76.00 A19.00,19.00 0 0 0 38.00,76.00 M6.33,76.00 A12.67,12.67 0 0 0 31.67,76.00 M12.67,76.00 A6.33,6.33 0 0 0 25.33,76.00 M38.00,76.00 A19.00,19.00 0 0 0 76.00,76.00 M44.33,76.00 A12.67,12.67 0 0 0 69.67,76.00 M50.67,76.00 A6.33,6.33 0 0 0 63.33,76.00 M76.00,76.00 A19.00,19.00 0 0 0 114.00,76.00 M82.33,76.00 A12.67,12.67 0 0 0 107.67,76.00 M88.67,76.00 A6.33,6.33 0 0 0 101.33,76.00 M-19.00,95.00 A19.00,19.00 0 0 0 19.00,95.00 M-12.67,95.00 A12.67,12.67 0 0 0 12.67,95.00 M-6.33,95.00 A6.33,6.33 0 0 0 6.33,95.00 M19.00,95.00 A19.00,19.00 0 0 0 57.00,95.00 M25.33,95.00 A12.67,12.67 0 0 0 50.67,95.00 M31.67,95.00 A6.33,6.33 0 0 0 44.33,95.00 M57.00,95.00 A19.00,19.00 0 0 0 95.00,95.00 M63.33,95.00 A12.67,12.67 0 0 0 88.67,95.00 M69.67,95.00 A6.33,6.33 0 0 0 82.33,95.00 M-38.00,114.00 A19.00,19.00 0 0 0 0.00,114.00 M-31.67,114.00 A12.67,12.67 0 0 0 -6.33,114.00 M-25.33,114.00 A6.33,6.33 0 0 0 -12.67,114.00 M0.00,114.00 A19.00,19.00 0 0 0 38.00,114.00 M6.33,114.00 A12.67,12.67 0 0 0 31.67,114.00 M12.67,114.00 A6.33,6.33 0 0 0 25.33,114.00 M38.00,114.00 A19.00,19.00 0 0 0 76.00,114.00 M44.33,114.00 A12.67,12.67 0 0 0 69.67,114.00 M50.67,114.00 A6.33,6.33 0 0 0 63.33,114.00 M76.00,114.00 A19.00,19.00 0 0 0 114.00,114.00 M82.33,114.00 A12.67,12.67 0 0 0 107.67,114.00 M88.67,114.00 A6.33,6.33 0 0 0 101.33,114.00 M-19.00,133.00 A19.00,19.00 0 0 0 19.00,133.00 M-12.67,133.00 A12.67,12.67 0 0 0 12.67,133.00 M-6.33,133.00 A6.33,6.33 0 0 0 6.33,133.00 M19.00,133.00 A19.00,19.00 0 0 0 57.00,133.00 M25.33,133.00 A12.67,12.67 0 0 0 50.67,133.00 M31.67,133.00 A6.33,6.33 0 0 0 44.33,133.00 M57.00,133.00 A19.00,19.00 0 0 0 95.00,133.00 M63.33,133.00 A12.67,12.67 0 0 0 88.67,133.00 M69.67,133.00 A6.33,6.33 0 0 0 82.33,133.00"/></g></g></g><g clip-path="url(#wk-seg-3)"><g transform="translate(507.88,20)"><rect width="29.07" height="130" fill="#9a5a3a"/><g fill="none" stroke="#663b25" stroke-width="1.6" opacity="0.6"><path d="M-38.00,0.00 A19.00,19.00 0 0 0 0.00,0.00 M-31.67,0.00 A12.67,12.67 0 0 0 -6.33,0.00 M-25.33,0.00 A6.33,6.33 0 0 0 -12.67,0.00 M0.00,0.00 A19.00,19.00 0 0 0 38.00,0.00 M6.33,0.00 A12.67,12.67 0 0 0 31.67,0.00 M12.67,0.00 A6.33,6.33 0 0 0 25.33,0.00 M38.00,0.00 A19.00,19.00 0 0 0 76.00,0.00 M44.33,0.00 A12.67,12.67 0 0 0 69.67,0.00 M50.67,0.00 A6.33,6.33 0 0 0 63.33,0.00 M-19.00,19.00 A19.00,19.00 0 0 0 19.00,19.00 M-12.67,19.00 A12.67,12.67 0 0 0 12.67,19.00 M-6.33,19.00 A6.33,6.33 0 0 0 6.33,19.00 M19.00,19.00 A19.00,19.00 0 0 0 57.00,19.00 M25.33,19.00 A12.67,12.67 0 0 0 50.67,19.00 M31.67,19.00 A6.33,6.33 0 0 0 44.33,19.00 M57.00,19.00 A19.00,19.00 0 0 0 95.00,19.00 M63.33,19.00 A12.67,12.67 0 0 0 88.67,19.00 M69.67,19.00 A6.33,6.33 0 0 0 82.33,19.00 M-38.00,38.00 A19.00,19.00 0 0 0 0.00,38.00 M-31.67,38.00 A12.67,12.67 0 0 0 -6.33,38.00 M-25.33,38.00 A6.33,6.33 0 0 0 -12.67,38.00 M0.00,38.00 A19.00,19.00 0 0 0 38.00,38.00 M6.33,38.00 A12.67,12.67 0 0 0 31.67,38.00 M12.67,38.00 A6.33,6.33 0 0 0 25.33,38.00 M38.00,38.00 A19.00,19.00 0 0 0 76.00,38.00 M44.33,38.00 A12.67,12.67 0 0 0 69.67,38.00 M50.67,38.00 A6.33,6.33 0 0 0 63.33,38.00 M-19.00,57.00 A19.00,19.00 0 0 0 19.00,57.00 M-12.67,57.00 A12.67,12.67 0 0 0 12.67,57.00 M-6.33,57.00 A6.33,6.33 0 0 0 6.33,57.00 M19.00,57.00 A19.00,19.00 0 0 0 57.00,57.00 M25.33,57.00 A12.67,12.67 0 0 0 50.67,57.00 M31.67,57.00 A6.33,6.33 0 0 0 44.33,57.00 M57.00,57.00 A19.00,19.00 0 0 0 95.00,57.00 M63.33,57.00 A12.67,12.67 0 0 0 88.67,57.00 M69.67,57.00 A6.33,6.33 0 0 0 82.33,57.00 M-38.00,76.00 A19.00,19.00 0 0 0 0.00,76.00 M-31.67,76.00 A12.67,12.67 0 0 0 -6.33,76.00 M-25.33,76.00 A6.33,6.33 0 0 0 -12.67,76.00 M0.00,76.00 A19.00,19.00 0 0 0 38.00,76.00 M6.33,76.00 A12.67,12.67 0 0 0 31.67,76.00 M12.67,76.00 A6.33,6.33 0 0 0 25.33,76.00 M38.00,76.00 A19.00,19.00 0 0 0 76.00,76.00 M44.33,76.00 A12.67,12.67 0 0 0 69.67,76.00 M50.67,76.00 A6.33,6.33 0 0 0 63.33,76.00 M-19.00,95.00 A19.00,19.00 0 0 0 19.00,95.00 M-12.67,95.00 A12.67,12.67 0 0 0 12.67,95.00 M-6.33,95.00 A6.33,6.33 0 0 0 6.33,95.00 M19.00,95.00 A19.00,19.00 0 0 0 57.00,95.00 M25.33,95.00 A12.67,12.67 0 0 0 50.67,95.00 M31.67,95.00 A6.33,6.33 0 0 0 44.33,95.00 M57.00,95.00 A19.00,19.00 0 0 0 95.00,95.00 M63.33,95.00 A12.67,12.67 0 0 0 88.67,95.00 M69.67,95.00 A6.33,6.33 0 0 0 82.33,95.00 M-38.00,114.00 A19.00,19.00 0 0 0 0.00,114.00 M-31.67,114.00 A12.67,12.67 0 0 0 -6.33,114.00 M-25.33,114.00 A6.33,6.33 0 0 0 -12.67,114.00 M0.00,114.00 A19.00,19.00 0 0 0 38.00,114.00 M6.33,114.00 A12.67,12.67 0 0 0 31.67,114.00 M12.67,114.00 A6.33,6.33 0 0 0 25.33,114.00 M38.00,114.00 A19.00,19.00 0 0 0 76.00,114.00 M44.33,114.00 A12.67,12.67 0 0 0 69.67,114.00 M50.67,114.00 A6.33,6.33 0 0 0 63.33,114.00 M-19.00,133.00 A19.00,19.00 0 0 0 19.00,133.00 M-12.67,133.00 A12.67,12.67 0 0 0 12.67,133.00 M-6.33,133.00 A6.33,6.33 0 0 0 6.33,133.00 M19.00,133.00 A19.00,19.00 0 0 0 57.00,133.00 M25.33,133.00 A12.67,12.67 0 0 0 50.67,133.00 M31.67,133.00 A6.33,6.33 0 0 0 44.33,133.00 M57.00,133.00 A19.00,19.00 0 0 0 95.00,133.00 M63.33,133.00 A12.67,12.67 0 0 0 88.67,133.00 M69.67,133.00 A6.33,6.33 0 0 0 82.33,133.00"/></g></g></g><g clip-path="url(#wk-seg-4)"><g transform="translate(539.96,20)"><rect width="24.04" height="130" fill="#c4a488"/><g fill="none" stroke="#7e6652" stroke-width="1.6" opacity="0.6"><path d="M-38.00,0.00 A19.00,19.00 0 0 0 0.00,0.00 M-31.67,0.00 A12.67,12.67 0 0 0 -6.33,0.00 M-25.33,0.00 A6.33,6.33 0 0 0 -12.67,0.00 M0.00,0.00 A19.00,19.00 0 0 0 38.00,0.00 M6.33,0.00 A12.67,12.67 0 0 0 31.67,0.00 M12.67,0.00 A6.33,6.33 0 0 0 25.33,0.00 M38.00,0.00 A19.00,19.00 0 0 0 76.00,0.00 M44.33,0.00 A12.67,12.67 0 0 0 69.67,0.00 M50.67,0.00 A6.33,6.33 0 0 0 63.33,0.00 M-19.00,19.00 A19.00,19.00 0 0 0 19.00,19.00 M-12.67,19.00 A12.67,12.67 0 0 0 12.67,19.00 M-6.33,19.00 A6.33,6.33 0 0 0 6.33,19.00 M19.00,19.00 A19.00,19.00 0 0 0 57.00,19.00 M25.33,19.00 A12.67,12.67 0 0 0 50.67,19.00 M31.67,19.00 A6.33,6.33 0 0 0 44.33,19.00 M57.00,19.00 A19.00,19.00 0 0 0 95.00,19.00 M63.33,19.00 A12.67,12.67 0 0 0 88.67,19.00 M69.67,19.00 A6.33,6.33 0 0 0 82.33,19.00 M-38.00,38.00 A19.00,19.00 0 0 0 0.00,38.00 M-31.67,38.00 A12.67,12.67 0 0 0 -6.33,38.00 M-25.33,38.00 A6.33,6.33 0 0 0 -12.67,38.00 M0.00,38.00 A19.00,19.00 0 0 0 38.00,38.00 M6.33,38.00 A12.67,12.67 0 0 0 31.67,38.00 M12.67,38.00 A6.33,6.33 0 0 0 25.33,38.00 M38.00,38.00 A19.00,19.00 0 0 0 76.00,38.00 M44.33,38.00 A12.67,12.67 0 0 0 69.67,38.00 M50.67,38.00 A6.33,6.33 0 0 0 63.33,38.00 M-19.00,57.00 A19.00,19.00 0 0 0 19.00,57.00 M-12.67,57.00 A12.67,12.67 0 0 0 12.67,57.00 M-6.33,57.00 A6.33,6.33 0 0 0 6.33,57.00 M19.00,57.00 A19.00,19.00 0 0 0 57.00,57.00 M25.33,57.00 A12.67,12.67 0 0 0 50.67,57.00 M31.67,57.00 A6.33,6.33 0 0 0 44.33,57.00 M57.00,57.00 A19.00,19.00 0 0 0 95.00,57.00 M63.33,57.00 A12.67,12.67 0 0 0 88.67,57.00 M69.67,57.00 A6.33,6.33 0 0 0 82.33,57.00 M-38.00,76.00 A19.00,19.00 0 0 0 0.00,76.00 M-31.67,76.00 A12.67,12.67 0 0 0 -6.33,76.00 M-25.33,76.00 A6.33,6.33 0 0 0 -12.67,76.00 M0.00,76.00 A19.00,19.00 0 0 0 38.00,76.00 M6.33,76.00 A12.67,12.67 0 0 0 31.67,76.00 M12.67,76.00 A6.33,6.33 0 0 0 25.33,76.00 M38.00,76.00 A19.00,19.00 0 0 0 76.00,76.00 M44.33,76.00 A12.67,12.67 0 0 0 69.67,76.00 M50.67,76.00 A6.33,6.33 0 0 0 63.33,76.00 M-19.00,95.00 A19.00,19.00 0 0 0 19.00,95.00 M-12.67,95.00 A12.67,12.67 0 0 0 12.67,95.00 M-6.33,95.00 A6.33,6.33 0 0 0 6.33,95.00 M19.00,95.00 A19.00,19.00 0 0 0 57.00,95.00 M25.33,95.00 A12.67,12.67 0 0 0 50.67,95.00 M31.67,95.00 A6.33,6.33 0 0 0 44.33,95.00 M57.00,95.00 A19.00,19.00 0 0 0 95.00,95.00 M63.33,95.00 A12.67,12.67 0 0 0 88.67,95.00 M69.67,95.00 A6.33,6.33 0 0 0 82.33,95.00 M-38.00,114.00 A19.00,19.00 0 0 0 0.00,114.00 M-31.67,114.00 A12.67,12.67 0 0 0 -6.33,114.00 M-25.33,114.00 A6.33,6.33 0 0 0 -12.67,114.00 M0.00,114.00 A19.00,19.00 0 0 0 38.00,114.00 M6.33,114.00 A12.67,12.67 0 0 0 31.67,114.00 M12.67,114.00 A6.33,6.33 0 0 0 25.33,114.00 M38.00,114.00 A19.00,19.00 0 0 0 76.00,114.00 M44.33,114.00 A12.67,12.67 0 0 0 69.67,114.00 M50.67,114.00 A6.33,6.33 0 0 0 63.33,114.00 M-19.00,133.00 A19.00,19.00 0 0 0 19.00,133.00 M-12.67,133.00 A12.67,12.67 0 0 0 12.67,133.00 M-6.33,133.00 A6.33,6.33 0 0 0 6.33,133.00 M19.00,133.00 A19.00,19.00 0 0 0 57.00,133.00 M25.33,133.00 A12.67,12.67 0 0 0 50.67,133.00 M31.67,133.00 A6.33,6.33 0 0 0 44.33,133.00 M57.00,133.00 A19.00,19.00 0 0 0 95.00,133.00 M63.33,133.00 A12.67,12.67 0 0 0 88.67,133.00 M69.67,133.00 A6.33,6.33 0 0 0 82.33,133.00"/></g></g></g><line x1="591.00" y1="26" x2="591.00" y2="144" stroke="#2a1810" stroke-width="1" opacity="0.3"/><rect x="615.00" y="27.00" width="12" height="12" rx="3" fill="#b87040"/><text x="635.00" y="37.00" fill="#1e1108" font-size="13" font-weight="600">TypeScript</text><text x="800.00" y="37.00" fill="#2a1810" font-size="12" text-anchor="end" opacity="0.7">48.2%</text><rect x="615.00" y="53.00" width="12" height="12" rx="3" fill="#7a4a2a"/><text x="635.00" y="63.00" fill="#1e1108" font-size="13" font-weight="600">Markdown</text><text x="800.00" y="63.00" fill="#2a1810" font-size="12" text-anchor="end" opacity="0.7">21.4%</text><rect x="615.00" y="79.00" width="12" height="12" rx="3" fill="#d89868"/><text x="635.00" y="89.00" fill="#1e1108" font-size="13" font-weight="600">CSS</text><text x="800.00" y="89.00" fill="#2a1810" font-size="12" text-anchor="end" opacity="0.7">5.9%</text><rect x="615.00" y="105.00" width="12" height="12" rx="3" fill="#9a5a3a"/><text x="635.00" y="115.00" fill="#1e1108" font-size="13" font-weight="600">Other</text><text x="800.00" y="115.00" fill="#2a1810" font-size="12" text-anchor="end" opacity="0.7">5.0%</text><rect x="615.00" y="131.00" width="12" height="12" rx="3" fill="#c4a488"/><text x="635.00" y="141.00" fill="#1e1108" font-size="13" font-weight="600">ERB</text><text x="800.00" y="141.00" fill="#2a1810" font-size="12" text-anchor="end" opacity="0.7">4.2%</text></svg>